<?xml version="1.0" encoding="iso-8859-1"?>
<!-- Generator: Adobe Illustrator 18.0.0, SVG Export Plug-In . SVG Version: 6.00 Build 0)  -->
<!DOCTYPE svg PUBLIC "-//W3C//DTD SVG 1.1//EN" "http://www.w3.org/Graphics/SVG/1.1/DTD/svg11.dtd">
<svg version="1.1" id="Capa_1" xmlns="http://www.w3.org/2000/svg" xmlns:xlink="http://www.w3.org/1999/xlink" x="0px" y="0px"
	 viewBox="0 0 512 512" style="enable-background:new 0 0 512 512;" xml:space="preserve">
<g>
	<path d="M320,320v64c0,35.297-28.688,64-64,64s-64-28.703-64-64v-64h-64v64c0,70.578,57.438,128,128,128s128-57.422,128-128v-64
		H320z"/>
	<path d="M256,0c-70.563,0-128,57.422-128,128v64h64v-64c0-35.297,28.688-64,64-64s64,28.703,64,64v64h64v-64
		C384,57.422,326.563,0,256,0z"/>
	<path d="M496,240h-80c-8.844,0-16,7.164-16,16s7.156,16,16,16h80c8.844,0,16-7.164,16-16S504.844,240,496,240z"/>
	<path d="M416.016,224c3.344,0,6.703-1.039,9.578-3.203l64-48c7.078-5.297,8.516-15.328,3.203-22.398
		c-5.297-7.063-15.328-8.516-22.391-3.195l-64,48c-7.078,5.297-8.516,15.328-3.203,22.398C406.344,221.789,411.141,224,416.016,224z
		"/>
	<path d="M96,240H16c-8.844,0-16,7.164-16,16s7.156,16,16,16h80c8.844,0,16-7.164,16-16S104.844,240,96,240z"/>
	<path d="M86.406,220.797c2.875,2.164,6.234,3.203,9.578,3.203c4.875,0,9.672-2.211,12.813-6.398
		c5.313-7.07,3.875-17.102-3.203-22.398l-64-48c-7.047-5.32-17.094-3.852-22.391,3.195c-5.313,7.07-3.875,17.102,3.203,22.398
		L86.406,220.797z"/>
	<path d="M86.406,291.203l-64,48c-7.078,5.297-8.516,15.328-3.203,22.398c3.141,4.188,7.938,6.398,12.812,6.398
		c3.344,0,6.703-1.039,9.578-3.203l64-48c7.078-5.297,8.516-15.328,3.203-22.398C103.5,287.328,93.453,285.883,86.406,291.203z"/>
	<path d="M425.594,291.203c-7.063-5.32-17.078-3.867-22.391,3.195c-5.313,7.07-3.875,17.102,3.203,22.398l64,48
		c2.875,2.164,6.234,3.203,9.578,3.203c4.875,0,9.672-2.211,12.813-6.398c5.313-7.07,3.875-17.102-3.203-22.398L425.594,291.203z"/>
</g>
<g>
</g>
<g>
</g>
<g>
</g>
<g>
</g>
<g>
</g>
<g>
</g>
<g>
</g>
<g>
</g>
<g>
</g>
<g>
</g>
<g>
</g>
<g>
</g>
<g>
</g>
<g>
</g>
<g>
</g>
</svg>
