<?xml version="1.0" encoding="utf-8"?>
<!-- Generator: Adobe Illustrator 16.0.0, SVG Export Plug-In . SVG Version: 6.00 Build 0)  -->
<!DOCTYPE svg PUBLIC "-//W3C//DTD SVG 1.1//EN" "http://www.w3.org/Graphics/SVG/1.1/DTD/svg11.dtd">
<svg version="1.1" id="Layer_1" xmlns="http://www.w3.org/2000/svg" xmlns:xlink="http://www.w3.org/1999/xlink" x="0px" y="0px"
	 width="599px" height="472px" viewBox="0 0 599 472" enable-background="new 0 0 599 472" xml:space="preserve">
<path fill-rule="evenodd" clip-rule="evenodd" d="M472.503,124.814c2.758,24.581,0.085,41.595-9.431,59.369
	c-14.124,26.375-35.951,43.904-64.072,53.619c-19.164,6.621-38.881,7.435-58.847,4.726c-17.481-2.375-34.171-7.518-50.403-14.276
	c-0.498-0.207-0.934-0.569-1.399-0.861c0.553,0.102,1.131,0.13,1.658,0.314c15.869,5.581,32.085,9.65,48.894,11.057
	c22.342,1.87,43.878-0.855,63.853-11.815c12.879-7.064,23.693-16.488,32.475-28.32c9.335-12.588,15.155-26.567,17.114-42.088
	c2.766-21.79-3.615-40.961-17.278-57.819c-12.042-14.857-27.016-25.515-45.747-30.25c-13.109-3.313-25.863-2.27-38.048,3.993
	c-5.376,2.764-11.137,4.87-16.252,8.039c-11.578,7.184-20.912,16.979-29.243,27.612c-8.093,10.323-15.713,21.02-23.312,31.719
	c-5.111,7.205-9.932,14.623-14.695,22.064c-14.297,22.335-28.348,44.819-42.791,67.059c-12.012,18.504-24.866,36.422-39.294,53.15
	c-3.297,3.823-6.858,7.419-10.323,11.092c-0.284,0.303-0.768,0.413-1.164,0.618c0.18-0.372,0.296-0.78,0.527-1.111
	c3.705-5.32,7.593-10.52,11.101-15.961c12.652-19.634,23.312-40.375,33.675-61.275c11.782-23.759,23.403-47.594,35.301-71.296
	c10.511-20.934,21.896-41.394,35.328-60.612c9.289-13.287,19.608-25.682,32.803-35.415c15.046-11.102,31.49-12.073,50.114-11.898
	c23.358,0.215,40.052,8.644,55.289,20.04c14.101,11.029,21.479,19.407,32.723,37.906
	C466.866,103.757,471.622,116.979,472.503,124.814z"/>
<path fill-rule="evenodd" clip-rule="evenodd" d="M132.565,260.677c-6.696,3.271-13.862,5.131-21.242,6.22
	c-15.885,2.35-30.524-0.357-43.006-11.177c-0.802-0.696-1.424-1.589-2.128-2.391c0.85,0.616,1.717,1.207,2.544,1.848
	c10.317,7.949,22.148,10.616,34.907,10.028c11.801-0.537,20.574-3.503,31.22-8.309c1.604-0.723,5.122-3.231,6.25-4.62
	c9.183-11.342,17.655-22.783,24.918-35.422c11.151-19.417,22.103-38.946,33.061-58.467c10.799-19.233,21.559-38.491,34.136-56.643
	c9.575-13.811,20.079-26.84,33.292-37.421c9.45-7.573,19.894-13.174,31.854-15.724c5.84-1.247,11.629-2.733,17.454-4.09
	c0.341-0.081,0.715,0.014,1.075,0.027c-0.278,0.181-0.537,0.396-0.837,0.538c-19.58,9.361-34.218,24.472-47.659,40.974
	c-10.808,13.277-20.355,27.457-29.294,42.019c-9.329,15.194-18.147,30.708-27.193,46.078c-6.06,10.298-11.988,20.676-18.239,30.856
	c-6.477,10.538-13.035,21.043-19.989,31.272c-9.524,14.01-19.969,27.3-32.613,38.731c-10.294,9.313-22.644,16.201-34.545,18.714
	c-11.392,2.263-23.047,0.876-34.415-3.306c-17.555-6.459-31.736-17.446-43.035-32.267c-0.306-0.4-0.604-0.813-0.862-1.241
	c-0.288-0.495-0.527-1.012-0.792-1.521c0.411,0.378,0.856,0.719,1.218,1.129c10.842,12.341,23.84,21.479,39.555,26.548
	c20.167,6.502,37.77,1.897,54.265-11.059C129.808,266.233,132.565,260.677,132.565,260.677z"/>
<path fill-rule="evenodd" clip-rule="evenodd" d="M420.587,124.485c2.925,13.412,0.414,26.198-4.771,38.659
	c-0.182,0.441-0.544,0.805-0.822,1.202c-0.061-0.383-0.206-0.775-0.173-1.147c2.067-23.399-8.303-40.935-26.038-54.908
	c-10.861-8.562-23.228-13.804-36.88-16.02c-0.697-0.115-1.356-0.452-2.033-0.687c0.561-0.472,1.056-1.066,1.686-1.398
	c16.729-8.902,32.991-7.607,48.378,2.991C410.891,100.723,417.83,111.274,420.587,124.485z"/>
<path fill-rule="evenodd" clip-rule="evenodd" d="M361.157,279.077c-15.294,1.323-30.865-1.065-46.192-5.421
	c-17.569-4.995-34.205-12.281-50.317-20.808c-0.446-0.237-0.793-0.668-1.182-1.009c0.466,0.162,0.952,0.278,1.398,0.496
	c16.801,8.124,34.107,14.846,52.369,18.926c15.489,3.451,31.118,5.016,46.87,2.505c16.41-2.615,31.281-9.049,44.559-19.121
	c6.878-5.217,13.045-11.14,18.482-17.836c0.328-0.398,0.83-0.662,1.252-0.991c-0.203,0.453-0.368,0.924-0.61,1.344
	c-6.534,11.047-15.14,20.181-25.722,27.397C389.933,272.843,376.456,277.517,361.157,279.077z"/>
<g>
	<path fill-rule="evenodd" clip-rule="evenodd" d="M163.555,443.355c-1.854,0-4.338,0.024-6.14,0.024
		c-0.759,0-0.883-0.125-0.883-0.892c0-0.614,0.015-1.113,0.015-1.73c0-25.897,0-52.348,0-78.244c1.14,0,3.522-0.024,5.606-0.024
		c1.408,0,1.413,1.108,1.441,2.145c0.036,1.226,0.109,2.448,0.167,3.676c0.823-0.895,1.624-1.812,2.474-2.678
		c2.747-2.803,6.056-4.375,10.02-4.401c3.944-0.025,7.892-0.066,11.836,0.018c9.824,0.21,16.31,6.568,16.463,16.351
		c0.145,9.141,0.133,18.285,0.005,27.429c-0.137,9.914-6.669,16.337-16.633,16.467c-7.314,0.094-14.63,0.018-21.944,0.037
		c-2.347,0.006-2.372,0.032-2.38,2.354L163.555,443.355z M197.438,391.444h-0.01c0-4.131,0.113-8.267-0.025-12.395
		c-0.224-6.682-3.787-10.315-10.407-10.609c-3.547-0.16-7.115-0.169-10.663,0c-7.71,0.365-12.46,4.891-12.638,12.544
		c-0.247,10.563-0.071,21.138-0.116,31.707c-0.003,1.22,0.383,1.719,1.649,1.683c2.399-0.068,4.804-0.015,7.206-0.018
		c4.709,0,9.419,0.085,14.123-0.022c6.92-0.16,10.592-3.868,10.872-10.782c0.025-0.672,0.01-1.343,0.01-2.018
		C197.438,398.171,197.438,394.808,197.438,391.444z"/>
	<path fill-rule="evenodd" clip-rule="evenodd" d="M398.145,442.797c-1.209-1.208-1.22-2.509-1.22-4.547
		c0-1.19,0.758-1.93,2.052-1.933c0.576-0.003,1.156,0.002,1.731-0.031c3.036-0.167,5.565-1.381,7.547-3.695
		c2.608-3.043,4.278-6.616,5.56-10.354c0.291-0.852-0.098-2.062-0.461-2.994c-4.045-10.383-8.151-20.737-12.234-31.103
		c-2.927-7.418-5.844-14.835-8.765-22.252c-0.178-0.447-0.389-0.884-0.521-1.342c-0.421-1.462-0.103-1.961,1.343-2.151
		c0.284-0.039,0.578-0.012,0.866-0.021c4.704-0.162,4.709-0.164,6.454,4.309c5.351,13.686,10.696,27.373,16.043,41.061
		c0.212,0.536,0.397,1.084,0.635,1.608c0.27,0.591,0.581,1.162,0.877,1.741c0.379-0.623,0.853-1.21,1.116-1.879
		c1.193-3.037,2.331-6.098,3.484-9.155c4.274-11.317,8.54-22.641,12.834-33.953c0.499-1.312,0.687-3.534,2.327-3.534
		c1.709,0,3.536-0.014,5.345-0.014c0.848,0,0.833,0.972,0.833,1.494c0,0.421-0.221,0.916-0.395,1.362
		c-7.828,20.241-15.62,40.499-23.548,60.7c-1.185,3.014-2.918,5.835-4.587,8.632c-2.562,4.291-6.279,7.338-11.113,8.61
		C400.467,444.378,398.602,443.254,398.145,442.797z"/>
	<path fill-rule="evenodd" clip-rule="evenodd" d="M334.455,340.54c1.253,1.932,0.604,4.066,0.594,6.117
		c-0.006,1.009-0.817,1.457-1.776,1.475c-1.522,0.028-3.046,0.028-4.568,0c-0.959-0.018-1.772-0.466-1.775-1.475
		c-0.01-2.051-0.658-4.186,0.594-6.117C329.833,340.54,332.145,340.54,334.455,340.54z"/>
	<path fill-rule="evenodd" clip-rule="evenodd" d="M266.991,397.813c0,6.639,0.006,13.278-0.002,19.918
		c-0.004,3.707-0.155,3.843-3.946,3.794c-0.287-0.004-0.578,0.012-0.866-0.008c-1.827-0.129-2.211-0.465-2.335-2.205
		c-0.089-1.241-0.089-2.486-0.129-3.729c-0.825,0.88-1.636,1.778-2.48,2.642c-2.821,2.881-6.214,4.459-10.286,4.451
		c-3.563-0.002-7.124,0.041-10.683-0.018c-9.792-0.165-16.153-6.573-16.26-16.436c-0.021-2.1,0.057-4.242,0.433-6.301
		c1.524-8.328,7.822-12.42,15.293-12.644c6.923-0.213,13.854-0.06,20.782-0.068c0.674-0.003,1.348-0.025,2.021-0.007
		c0.796,0.02,1.318-0.248,1.275-1.135c-0.168-3.45-0.068-6.94-0.592-10.333c-0.562-3.646-3.051-5.94-6.648-6.78
		c-4.363-1.02-8.826-0.847-13.203-0.297c-5.176,0.651-7.679,3.432-8.587,8.657c-0.688,3.955-0.688,3.955-4.701,3.774
		c-2.256-0.104-2.652-0.445-2.614-2.789c0.143-9.463,5.187-16.407,16.065-17.023c3.644-0.205,7.311-0.109,10.966-0.032
		c9.804,0.205,16.27,6.584,16.454,16.361c0.127,6.734,0.024,13.472,0.024,20.207H266.991z M247.759,394.382c0,0,0,0.023,0,0.035
		c-3.658,0-7.325-0.157-10.972,0.036c-5.828,0.309-9.347,4.026-9.617,9.832c-0.278,5.983,2.694,10.264,8.319,10.955
		c4.945,0.609,10.004,0.773,14.942-0.307c4.769-1.044,7.935-4.068,8.77-8.872c0.591-3.379,0.421-6.888,0.62-10.338
		c0.072-1.276-0.712-1.355-1.665-1.351C254.69,394.39,251.223,394.382,247.759,394.382z"/>
	<path fill-rule="evenodd" clip-rule="evenodd" d="M359.751,388.471c0-5.486-0.003-10.972,0.003-16.459
		c0.003-2.656,0.037-2.469-2.565-2.473c-2.215-0.003-4.43,0.048-6.641-0.022c-1.827-0.057-2.271-0.451-2.324-2.198
		c-0.16-5.277,0.016-4.997,4.506-4.948c1.731,0.017,3.468-0.066,5.196,0.021c1.353,0.068,1.894-0.367,1.85-1.787
		c-0.088-2.885-0.037-5.775-0.02-8.662c0.018-3.273,0.174-3.419,3.441-3.432c0.48-0.003,0.965-0.027,1.442,0.011
		c1.78,0.135,2.213,0.488,2.254,2.275c0.071,3.176,0.001,6.354,0.035,9.53c0.02,1.989,0.054,2.018,2.117,2.037
		c2.885,0.028,5.773-0.016,8.661,0.015c2.731,0.028,3.006,0.314,3.074,2.93c0.107,4.09-0.021,4.225-4.089,4.23
		c-2.407,0.003-4.812-0.003-7.222,0.002c-2.599,0.002-2.556-0.188-2.553,2.48c0.004,9.144,0,18.289,0.004,27.436
		c0,1.635-0.068,3.278,0.061,4.905c0.491,6.126,3.794,9.413,9.925,9.926c1.052,0.088,2.115,0.064,3.175,0.068
		c4.162,0.015,4.335,0.192,4.165,4.444c-0.095,2.331-0.387,2.687-2.71,2.707c-2.5,0.02-5.037,0.168-7.496-0.188
		c-8.999-1.311-14.115-7.236-14.259-16.388c-0.087-5.486-0.014-10.974-0.014-16.461H359.751z"/>
	<path fill-rule="evenodd" clip-rule="evenodd" d="M286.393,391.917c0-8.468,0-16.932,0.001-25.396c0-0.771-0.055-1.551,0.041-2.308
		c0.211-1.634,0.661-1.843,3.55-1.843c2.883,0.002,3.344,0.209,3.527,1.857c0.115,1.046,0.017,2.114,0.065,3.172
		c0.014,0.309,0.202,0.605,0.31,0.909c0.201-0.188,0.408-0.367,0.598-0.562c1.337-1.364,2.528-2.929,4.045-4.051
		c2.278-1.684,4.941-2.525,7.838-2.482c2.212,0.034,4.425-0.018,6.64,0.01c2.732,0.033,3.009,0.313,3.078,2.92
		c0.109,4.096-0.022,4.249-4.075,4.249c-2.624,0-5.029-0.102-7.483,0.266c-6.56,0.98-10.189,4.94-10.854,11.543
		c-0.126,1.239-0.108,2.498-0.109,3.75c-0.008,11.06-0.006,22.123-0.006,33.186c0,0.771,0.045,1.546-0.025,2.308
		c-0.18,1.903-0.616,2.121-3.902,2.081c-2.676-0.033-3.059-0.281-3.219-2.193c-0.057-0.669-0.02-1.346-0.02-2.021
		C286.393,408.848,286.393,400.381,286.393,391.917z"/>
	<path fill-rule="evenodd" clip-rule="evenodd" d="M334.571,391.899c0,8.742,0.01,17.484-0.004,26.226
		c-0.005,3.236-0.184,3.389-3.459,3.397c-0.673,0.003-1.347,0.015-2.016-0.047c-0.999-0.089-1.565-0.678-1.646-1.673
		c-0.054-0.669-0.041-1.343-0.041-2.015c-0.001-17.194-0.001-34.389-0.001-51.584c0-0.48-0.012-0.961,0.01-1.439
		c0.016-0.383-0.044-0.825,0.123-1.137c1.173-2.185,3.239-1.004,4.919-1.212c1.22-0.15,2.021,0.507,2.083,1.821
		c0.037,0.767,0.031,1.536,0.031,2.304C334.572,374.994,334.572,383.447,334.571,391.899z"/>
	<path fill-rule="evenodd" clip-rule="evenodd" fill="none" d="M197.438,391.444c0,3.363,0,6.727,0,10.09
		c0,0.675,0.016,1.346-0.01,2.018c-0.279,6.914-3.952,10.622-10.872,10.782c-4.704,0.107-9.413,0.022-14.123,0.022
		c-2.402,0.003-4.807-0.051-7.206,0.018c-1.267,0.036-1.652-0.463-1.649-1.683c0.045-10.569-0.13-21.144,0.116-31.707
		c0.178-7.653,4.928-12.179,12.638-12.544c3.548-0.169,7.116-0.16,10.663,0c6.62,0.294,10.183,3.928,10.407,10.609
		c0.139,4.128,0.025,8.264,0.025,12.395H197.438z"/>
	<path fill-rule="evenodd" clip-rule="evenodd" fill="none" d="M247.759,394.382c3.464,0,6.931,0.008,10.397-0.009
		c0.953-0.005,1.737,0.074,1.665,1.351c-0.199,3.45-0.029,6.959-0.62,10.338c-0.835,4.804-4.001,7.828-8.77,8.872
		c-4.938,1.08-9.997,0.916-14.942,0.307c-5.625-0.691-8.598-4.972-8.319-10.955c0.271-5.806,3.79-9.523,9.617-9.832
		c3.647-0.193,7.313-0.036,10.972-0.036C247.759,394.405,247.759,394.394,247.759,394.382z"/>
</g>
</svg>
