<?xml version="1.0" encoding="UTF-8" standalone="no"?>
<svg width="108px" height="109px" viewBox="0 0 108 109" version="1.1" xmlns="http://www.w3.org/2000/svg" xmlns:xlink="http://www.w3.org/1999/xlink" xmlns:sketch="http://www.bohemiancoding.com/sketch/ns">
    <!-- Generator: Sketch 3.3.3 (12072) - http://www.bohemiancoding.com/sketch -->
    <title>logo-maker</title>
    <desc>Created with Sketch.</desc>
    <defs></defs>
    <g id="MKRcoin" stroke="none" stroke-width="1" fill="none" fill-rule="evenodd" sketch:type="MSPage">
        <g id="Artboard-17" sketch:type="MSArtboardGroup" transform="translate(-23.000000, -27.000000)">
            <g id="logo-maker" sketch:type="MSLayerGroup" transform="translate(29.000000, 30.000000)">
                <g id="Path-3-Copy-4-+-Path-3-Copy-5-Copy" transform="translate(2.571480, 0.000000)" stroke-width="4.50000018" sketch:type="MSShapeGroup" stroke-linecap="round" stroke-linejoin="round">
                    <path d="M39.2735118,62.9999993 L39.273512,29.364949 L4.26325641e-13,0 L4.26325641e-13,63" id="Path-3-Copy-4" stroke="#1ABC9C"></path>
                    <path d="M90.6311812,62.9999993 L90.6311814,29.364949 L51.3576695,0 L51.3576695,63" id="Path-3-Copy-5" stroke="#546979" transform="translate(70.994425, 31.500000) scale(-1, 1) translate(-70.994425, -31.500000) "></path>
                </g>
                <path d="M1.79556847,80.746582 L8.92480838,92.4404297 C8.92480838,92.4404297 8.92923368,92.4448242 8.93808443,92.4536133 L8.93808443,92.4667969 C8.95578592,92.4843751 8.97348714,92.5063475 8.99118864,92.5327148 C9.00889013,92.5502931 9.02659135,92.567871 9.04429284,92.5854492 C9.06199433,92.6030274 9.07969556,92.6206054 9.09739705,92.6381836 C9.12394929,92.6557618 9.14607582,92.6733398 9.16377731,92.690918 C9.20803104,92.7172853 9.21688165,92.7216798 9.19032941,92.7041016 C9.19918016,92.7041016 9.20360547,92.708496 9.20360547,92.7172852 L9.23015757,92.7172852 C9.25670981,92.7348634 9.28326165,92.7480468 9.30981388,92.7568359 C9.32751537,92.765625 9.34964191,92.774414 9.37619414,92.7832031 C9.40274638,92.7919922 9.42929822,92.7963867 9.45585045,92.7963867 C9.47355195,92.8051758 9.49567848,92.8095703 9.52223071,92.8095703 C9.54878295,92.8183594 9.57533479,92.8227539 9.60188703,92.8227539 C9.62843926,92.8227539 9.6549911,92.8183594 9.68154334,92.8095703 C9.70809557,92.8095703 9.73022211,92.8051758 9.7479236,92.7963867 C9.77447583,92.7963867 9.80102767,92.7919922 9.82757991,92.7832031 C9.85413215,92.774414 9.87625868,92.765625 9.89396017,92.7568359 C9.92051241,92.7480468 9.94706424,92.7348634 9.97361648,92.7172852 C10.0090195,92.6997069 10.0222954,92.6953125 10.0134446,92.7041016 C9.9868924,92.7216798 9.99574301,92.7172853 10.0399967,92.690918 C10.0576982,92.6733398 10.0798248,92.6557618 10.106377,92.6381836 C10.1240785,92.6206054 10.1417797,92.6030274 10.1594812,92.5854492 C10.168332,92.5766601 10.1860332,92.5590822 10.2125854,92.5327148 C10.2302869,92.5063475 10.2479881,92.4843751 10.2656896,92.4667969 L10.2656896,92.4536133 C10.2745404,92.4448242 10.2789657,92.4404297 10.2789657,92.4404297 L17.4082056,80.746582 L17.4082056,95.2089844 C17.4082056,95.428712 17.4834358,95.617675 17.6338985,95.7758789 C17.7932119,95.9252937 17.9790748,96 18.1914926,96 C18.4127613,96 18.5986242,95.9252937 18.7490868,95.7758789 C18.9084003,95.617675 18.9880558,95.428712 18.9880558,95.2089844 L18.9880558,77.925293 C18.9880558,77.5297832 18.7933423,77.2792974 18.4039095,77.1738281 C18.0233274,77.0683588 17.7268319,77.18701 17.514414,77.5297852 L9.60188703,90.515625 L1.68936005,77.5297852 C1.47694216,77.18701 1.18044663,77.0683588 0.79986457,77.1738281 C0.410431765,77.2792974 0.215718284,77.5297832 0.215718284,77.925293 L0.215718284,95.2089844 C0.215718284,95.428712 0.290948492,95.617675 0.441411167,95.7758789 C0.600724587,95.9252937 0.791012763,96 1.0122814,96 C1.2246993,96 1.41056216,95.9252937 1.56987558,95.7758789 C1.72033826,95.617675 1.79556847,95.428712 1.79556847,95.2089844 L1.79556847,80.746582 Z M29.1846538,90.0014648 L33.3798862,79.9555664 L37.5751186,90.0014648 L29.1846538,90.0014648 Z M26.1577139,96 C26.5117437,96 26.7551356,95.837404 26.8878968,95.512207 L28.5341272,91.5834961 L38.2256452,91.5834961 L39.8718756,95.512207 C40.0046368,95.837404 40.2480286,96 40.6020585,96 C40.7082674,96 40.8100495,95.9780276 40.9074077,95.934082 C41.1109748,95.8549801 41.2525846,95.7143565 41.3322413,95.512207 C41.4207488,95.3100576 41.4207488,95.1079112 41.3322413,94.9057617 L39.4868701,90.4892578 L39.4868701,90.4760742 L34.110069,77.5957031 C34.0923676,77.5517576 34.070241,77.5034182 34.0436888,77.4506836 C34.0436888,77.4594727 34.0259876,77.4418948 33.9905846,77.3979492 C33.9640323,77.3627928 33.9463311,77.3408204 33.9374804,77.3320312 C33.9286296,77.3320312 33.9065031,77.3144533 33.8711001,77.2792969 C33.8356971,77.2529296 33.8179959,77.2397461 33.8179959,77.2397461 C33.7294884,77.1782223 33.6321317,77.138672 33.5259228,77.1210937 C33.5347735,77.1210937 33.512647,77.1210937 33.4595425,77.1210937 C33.4152888,77.1123046 33.3887369,77.1079102 33.3798862,77.1079102 C33.3710354,77.1079102 33.3400583,77.1123046 33.2869538,77.1210937 L33.2205736,77.1210937 C33.1232154,77.138672 33.0302839,77.1782223 32.9417765,77.2397461 C32.9506272,77.230957 32.932926,77.2441404 32.8886723,77.2792969 C32.8532693,77.3056642 32.8311427,77.3232421 32.822292,77.3320312 C32.8134413,77.3408204 32.79574,77.3627928 32.7691878,77.3979492 C32.7337848,77.4331056 32.7160836,77.4506836 32.7160836,77.4506836 C32.6895313,77.5034182 32.6674048,77.5517576 32.6497033,77.5957031 L27.2729023,90.4760742 L27.2729023,90.4892578 L25.4275311,94.9057617 C25.3390236,95.1079112 25.3390236,95.3100576 25.4275311,95.512207 C25.5071878,95.7143565 25.6487976,95.8549801 25.8523647,95.934082 C25.9497229,95.9780276 26.051505,96 26.1577139,96 L26.1577139,96 Z M48.5815558,95.6308594 C48.7408692,95.4814446 48.8205247,95.2968761 48.8205247,95.0771484 L48.8205247,90.0410156 L51.183662,87.5625 L59.0298087,95.7626953 C59.1891221,95.9208992 59.3794103,96 59.6006789,96 C59.8130968,96 59.9945344,95.9296882 60.144997,95.7890625 C60.3043105,95.6396477 60.3883913,95.4550792 60.397242,95.2353516 C60.397242,95.0156239 60.3220118,94.8310554 60.1715491,94.6816406 L52.2722982,86.4287109 L59.9060281,78.4658203 C60.0564908,78.3076164 60.1272957,78.1186534 60.1184449,77.8989258 C60.1184449,77.6879872 60.0387894,77.5078132 59.879476,77.3583984 C59.7201626,77.2089836 59.5298744,77.1342773 59.3086058,77.1342773 C59.0961879,77.1430665 58.9147503,77.2265617 58.7642876,77.3847656 L48.8205247,87.7734375 L48.8205247,77.8461914 C48.8205247,77.6352529 48.7408692,77.4506844 48.5815558,77.2924805 C48.4310931,77.1430657 48.2452302,77.0683594 48.0239616,77.0683594 C47.8115437,77.0683594 47.6256808,77.1430657 47.4663674,77.2924805 C47.3159047,77.4506844 47.2406745,77.6352529 47.2406745,77.8461914 L47.2406745,95.0771484 C47.2406745,95.2968761 47.3159047,95.4814446 47.4663674,95.6308594 C47.6256808,95.7890633 47.8115437,95.8681641 48.0239616,95.8681641 C48.2452302,95.8681641 48.4310931,95.7890633 48.5815558,95.6308594 L48.5815558,95.6308594 Z M77.8292883,96 C78.050557,96 78.2364199,95.9208992 78.3868825,95.7626953 C78.5461959,95.6132805 78.6258515,95.428712 78.6258515,95.2089844 C78.6258515,94.9892567 78.5461959,94.8046882 78.3868825,94.6552734 C78.2364199,94.4970695 78.050557,94.4179687 77.8292883,94.4179687 L68.0846662,94.4179687 L68.0846662,87.3251953 L75.3732187,87.3251953 C75.5944874,87.3251953 75.7803502,87.2460945 75.9308129,87.0878906 C76.0901263,86.9384758 76.1697818,86.7539073 76.1697818,86.5341797 C76.1697818,86.314452 76.0901263,86.1298836 75.9308129,85.9804687 C75.7803502,85.8222648 75.5944874,85.7431641 75.3732187,85.7431641 L68.0846662,85.7431641 L68.0846662,78.6503906 L77.8292883,78.6767578 C78.050557,78.6767578 78.2364199,78.6020515 78.3868825,78.4526367 C78.5461959,78.2944328 78.6258515,78.1054698 78.6258515,77.8857422 C78.6258515,77.6748036 78.5461959,77.4902352 78.3868825,77.3320312 C78.2364199,77.1738273 78.050557,77.0947266 77.8292883,77.0947266 L67.2881031,77.0683594 C67.0756852,77.0595703 66.8898223,77.138671 66.7305089,77.3056641 C66.5711955,77.4550789 66.49154,77.6396473 66.49154,77.859375 L66.49154,95.2089844 C66.49154,95.428712 66.5711955,95.6132805 66.7305089,95.7626953 C66.8809716,95.9208992 67.0668344,96 67.2881031,96 L77.8292883,96 Z M94.6240842,84.675293 C93.8717708,85.3608433 92.9557324,85.7124023 91.8759414,85.7299805 L86.5655206,85.7299805 L86.5655206,78.6767578 L91.783009,78.6767578 C92.8805015,78.6767578 93.8186665,79.0239223 94.5975321,79.7182617 C95.3763977,80.403812 95.7658246,81.2343701 95.7658246,82.2099609 C95.7658246,83.1679735 95.3852483,83.9897427 94.6240842,84.675293 L94.6240842,84.675293 Z M85.7689575,77.1210937 C85.5565396,77.1210937 85.3706767,77.1958 85.2113633,77.3452148 C85.0609006,77.4946297 84.9856704,77.6791981 84.9856704,77.8989258 L84.9856704,95.090332 C84.9856704,95.3012706 85.0609006,95.4858391 85.2113633,95.644043 C85.3706767,95.7934578 85.5565396,95.8681641 85.7689575,95.8681641 C85.9902261,95.8681641 86.176089,95.7934578 86.3265517,95.644043 C86.4858651,95.4858391 86.5655206,95.3012706 86.5655206,95.090332 L86.5655206,87.2988281 L90.999722,87.2988281 L95.102022,95.5649414 C95.243634,95.8549819 95.4781752,96 95.8056528,96 C95.9295632,96 96.0446212,95.9736331 96.1508301,95.9208984 C96.3455465,95.8242183 96.4783057,95.6748057 96.5491117,95.4726562 C96.6199177,95.2705068 96.6066417,95.0727549 96.5092835,94.8793945 L92.7256087,87.2197266 C94.0443698,87.0175771 95.1374205,86.4462938 96.0047936,85.5058594 C96.8898681,84.5566359 97.3323988,83.4580141 97.3323988,82.2099609 C97.3323988,80.8037039 96.7925114,79.6040089 95.7127204,78.6108398 C94.6240787,77.6176708 93.314188,77.1210937 91.783009,77.1210937 L85.7689575,77.1210937 Z" id="Maker" fill="#546979" sketch:type="MSShapeGroup"></path>
            </g>
        </g>
    </g>
</svg>