<?xml version="1.0" encoding="utf-8"?>
<!-- Generator: Adobe Illustrator 19.0.0, SVG Export Plug-In . SVG Version: 6.00 Build 0)  -->
<svg version="1.1" id="Слой_1" xmlns="http://www.w3.org/2000/svg" xmlns:xlink="http://www.w3.org/1999/xlink" x="0px" y="0px"
	 viewBox="0 0 83.609 73.184" enable-background="new 0 0 83.609 73.184" xml:space="preserve">
<g id="XMLID_2_">
	<path id="XMLID_3_" fill="#213654" d="M44.782,73.184c-3.33,0-6.614-0.446-9.764-1.325l0.443-1.586
		c3.004,0.84,6.141,1.265,9.32,1.265c2.181,0,4.902-0.338,7.314-0.791c-1.933-1.169-3.504-3.376-4.303-6.29
		c-0.674-2.458-0.595-4.833,0.202-6.665c-2.754,0.904-5.73,1.375-8.768,1.375l-0.524-0.005l0.029-1.646l0.495,0.005
		c3.953,0,7.791-0.843,11.107-2.439c0.515-0.302,1.085-0.521,1.702-0.653c0.459-0.099,0.942-0.142,1.381-0.143l-0.016,1.646
		c-0.336,0.008-0.679,0.032-1.021,0.105c-0.449,0.096-0.857,0.252-1.224,0.468l0.002,0.005c-0.019,0.01-0.037,0.019-0.056,0.027
		c-0.521,0.319-0.956,0.763-1.298,1.325c-0.927,1.523-1.082,3.769-0.426,6.159c0.997,3.64,3.34,5.964,5.905,6.012
		c0.085-0.022,0.169-0.046,0.251-0.068l0.018,0.065c0.244-0.011,0.489-0.042,0.735-0.095c1.212-0.258,2.106-0.996,2.66-2.194
		l1.494,0.689c-0.772,1.672-2.09,2.748-3.812,3.114c-0.383,0.082-0.764,0.127-1.141,0.136
		C52.543,72.447,48.078,73.184,44.782,73.184z M23.554,66.171c-7.101-5.453-11.173-13.35-11.173-21.668
		c0-2.19,0.281-4.376,0.835-6.497l1.592,0.416c-0.518,1.985-0.78,4.031-0.78,6.081c0,7.802,3.837,15.224,10.528,20.363
		L23.554,66.171z M30.185,65.251c-0.496-3.824,1.038-4.895,2.392-5.841c0.542-0.378,1.054-0.735,1.486-1.276
		c0.905-1.134,0.361-1.996-1.427-4.17c-0.342-0.416-0.699-0.852-1.054-1.314c-0.63-0.824-0.858-1.736-0.661-2.639
		c0.43-1.96,2.681-3.202,2.936-3.338l0.772,1.454c-0.508,0.271-1.876,1.204-2.101,2.239c-0.092,0.425,0.026,0.845,0.362,1.283
		c0.341,0.447,0.688,0.867,1.017,1.269c1.604,1.95,3.261,3.966,1.441,6.243c-0.581,0.728-1.244,1.19-1.829,1.599
		c-1.246,0.87-2.069,1.445-1.701,4.28L30.185,65.251z M24.476,60.15c-0.498-3.825,1.037-4.896,2.391-5.842
		c0.542-0.378,1.054-0.734,1.485-1.276c0.907-1.135,0.363-1.996-1.424-4.17c-0.342-0.416-0.7-0.852-1.055-1.314
		c-0.63-0.824-0.859-1.737-0.661-2.64c0.199-0.909,0.79-1.664,1.393-2.226c-2.809-1.872-2.855-4.946-2.855-4.991h1.646h-0.823
		l0.823-0.005c0.001,0.142,0.071,2.605,2.665,3.933c0.039-0.021,0.153,0.075,0.153,0.075c0.897,0.428,2.079,0.721,3.639,0.752
		c6.379-0.128,6.453-4.563,6.453-4.755h1.646c0,0.016-0.006,0.413-0.14,1.004c0.722-0.037,1.959-0.263,2.47-0.519
		c-0.36-1.032-2.216-4.104-3.907-6.63l0.244-1.153l0.581-0.368c-0.252-1.127-0.806-3.661-1.078-5.328
		c-5.859-0.881-10.078-0.201-12.548,2.033c-2.386,2.157-2.244,5.016-2.237,5.136l-1.642,0.121c-0.031-0.38-0.297-0.778-0.617-0.928
		c-0.284-0.133-0.617-0.067-0.991,0.195c-0.584,0.413-0.792,0.936-0.655,1.646c0.243,1.262,1.494,2.646,2.471,3.25
		c0.137-0.083,0.236-0.137,0.279-0.16l0.215,0.406c0.048,0.017,0.102,0.191,0.102,0.191l0.454,0.856
		c-0.182,0.097-0.473,0.278-0.782,0.519c0,0-0.058,0.066-0.077,0.062c-0.535,0.428-1.102,1.023-1.24,1.658
		c-0.092,0.426,0.026,0.846,0.361,1.285c0.341,0.446,0.688,0.867,1.018,1.269c1.603,1.949,3.259,3.964,1.441,6.241
		c-0.582,0.728-1.245,1.19-1.83,1.6c-1.246,0.87-2.069,1.444-1.7,4.279l-1.633,0.213c-0.498-3.826,1.037-4.896,2.391-5.842
		c0.541-0.378,1.053-0.735,1.486-1.277c0.904-1.134,0.36-1.995-1.427-4.168c-0.342-0.416-0.7-0.853-1.055-1.316
		c-0.629-0.825-0.857-1.737-0.66-2.64c0.188-0.854,0.722-1.573,1.285-2.123c-1.237-0.933-2.423-2.471-2.716-3.992
		c-0.26-1.344,0.21-2.516,1.322-3.301c0.864-0.611,1.802-0.732,2.636-0.344c0.066,0.03,0.129,0.063,0.191,0.1
		c0.322-1.246,1.014-2.798,2.479-4.134c2.843-2.591,7.506-3.422,13.866-2.472c2.637-3.356,0.348-5.941-0.428-6.66
		c-2.225-2.067-6.116-2.676-8.784-0.119l-1.374-0.424c-0.45-2.123-2.957-3.178-5.154-3.457c-3.329-0.417-7.678,0.653-9.351,4.017
		c-2.24,4.505,0.714,6.775,0.744,6.798l-0.536,1.481c-3.291-0.177-5.506,0.357-6.576,1.599c-1.38,1.599-0.814,4.36-0.36,6.58
		c0.385,1.881,0.689,3.367-0.074,4.262c-1.182,1.387-2.969,1.769-4.556,0.97c-1.34-0.675-2.081-1.984-1.804-3.185l1.604,0.371
		c-0.102,0.444,0.302,1.021,0.941,1.344c0.342,0.171,1.534,0.638,2.563-0.568c0.241-0.283-0.089-1.898-0.287-2.863
		c-0.526-2.572-1.181-5.773,0.728-7.985c1.201-1.394,3.201-2.117,6.084-2.196c-0.891-1.452-1.64-3.93,0.056-7.339
		c2.031-4.084,7.142-5.418,11.033-4.917c2.924,0.371,5.152,1.69,6.124,3.55c3.286-2.304,7.567-1.477,10.101,0.877
		c2.02,1.876,3.364,5.275,0.674,8.79c0.277,1.952,1.246,6.197,1.257,6.242l-0.363,0.879l-0.359,0.228
		c4.242,6.423,3.866,7.153,3.661,7.552c-0.375,0.73-1.675,1.153-2.877,1.336c1.418,0.983,2.757,2.646,2.659,5.126
		c-0.078,2.006-1.592,3.617-3.057,5.175c-1.937,2.061-3.07,3.405-2.016,5.004l-1.375,0.906c-1.823-2.766,0.31-5.035,2.191-7.037
		c1.257-1.338,2.557-2.721,2.611-4.112c0.108-2.769-2.197-3.966-3.157-4.343c-1.015,1.511-2.966,3.008-6.718,3.145v0.011
		c-0.096,0-0.189-0.001-0.283-0.003c-0.094,0.002-0.188,0.003-0.283,0.003v-0.011c-1.332-0.048-2.438-0.269-3.354-0.6
		c-0.576,0.434-1.244,1.082-1.395,1.778c-0.093,0.425,0.025,0.845,0.361,1.284c0.342,0.447,0.688,0.868,1.018,1.27
		c1.603,1.949,3.259,3.965,1.439,6.242c-0.58,0.728-1.244,1.19-1.829,1.599c-1.246,0.87-2.069,1.445-1.7,4.279L24.476,60.15z
		 M5.457,42.863c-0.305,0-0.621-0.013-0.951-0.037l0.121-1.641c1.847,0.134,3.15-0.171,3.892-0.91
		c1.213-1.21,1.039-3.611,0.871-5.934c-0.079-1.104-0.155-2.148-0.09-3.101c0.146-2.149,1.784-4.662,8.723-4.395L17.96,28.49
		c-3.1-0.114-6.842,0.284-7.018,2.862c-0.058,0.838,0.014,1.825,0.089,2.871c0.186,2.566,0.396,5.475-1.35,7.217
		C8.726,42.395,7.338,42.863,5.457,42.863z M29.865,32.328l-0.621-1.524l5.17-2.109l0.614-0.003l3.086,1.225l-0.607,1.529
		l-2.778-1.102L29.865,32.328z M19.314,25.852c-0.91,0-1.826-0.459-2.441-1.283c-0.887-1.187-0.828-2.714,0.149-3.891l1.266,1.051
		c-0.704,0.849-0.303,1.579-0.097,1.854c0.336,0.448,0.966,0.778,1.512,0.544c0.96-0.414,1.107-0.628,1.918-1.819
		c0.443-0.65,1.051-1.541,2.038-2.816c1.016-1.312,2.184-2.004,3.472-2.055c2.058-0.094,3.574,1.559,3.639,1.63l-1.219,1.107
		l0.609-0.554l-0.607,0.556c-0.012-0.011-1.09-1.126-2.367-1.095c-0.775,0.034-1.524,0.512-2.226,1.418
		c-0.956,1.235-1.547,2.102-1.979,2.735c-0.868,1.274-1.228,1.802-2.628,2.404C20.019,25.782,19.667,25.852,19.314,25.852z"/>
</g>
<g id="XMLID_11_">
	<path id="XMLID_12_" fill="#213654" d="M34.195,32.441c0-0.503,0.463-0.911,1.033-0.911s1.033,0.408,1.033,0.911
		c0,0.503-0.463,0.911-1.033,0.911S34.195,32.944,34.195,32.441"/>
</g>
<g id="XMLID_13_">
	<path id="XMLID_14_" fill="#213654" d="M69.862,50.537c-0.047,0-0.094,0-0.142-0.002l-1.418-0.026L44.59,50.51v-1.426l25.162,0.027
		c0.772-0.012,1.068-0.171,1.119-0.285c0.074-0.167-0.056-0.563-0.394-0.913l-4.377-4.139c-1.043-1.025-2.743-1.046-3.803-0.055
		l-3.212,3.01c-1.606,1.506-4.201,1.488-5.788-0.036l-3.071-2.951c-1.033-0.992-2.698-1.08-3.641-0.197l-0.975-1.039
		c1.505-1.409,4.017-1.315,5.602,0.209l3.072,2.951c1.05,1.007,2.767,1.019,3.826,0.024l3.212-3.01c0.71-0.666,1.61-1.031,2.53-1.1
		l-7.112-7.095l-3.018,2.734c-0.615,0.532-0.96,1.282-0.96,2.07c0,1.504,1.237,2.728,2.759,2.728c1.398,0,2.375-0.81,2.375-1.97
		c0.007-0.102,0.052-0.603-0.312-1.005c-0.355-0.393-1.03-0.6-1.949-0.6v-1.426c1.37,0,2.391,0.369,3.031,1.098
		c0.771,0.877,0.665,1.908,0.65,2.023c0.006,1.845-1.628,3.305-3.795,3.305c-2.308,0-4.185-1.863-4.185-4.153
		c0-1.202,0.525-2.346,1.441-3.138l3.508-3.178l0.981,0.023l9.296,9.272l-0.023,0.024c0.193,0.133,0.377,0.284,0.55,0.453
		l4.39,4.151c0.759,0.783,1.023,1.756,0.697,2.499C71.946,49.924,71.358,50.537,69.862,50.537z"/>
</g>
<g id="XMLID_15_">
	<path id="XMLID_16_" fill="#213654" d="M58.721,60.635c-0.793-2.043-1.708-3.035-1.717-3.045c-0.073-0.081-1.451-1.592-3.732-1.491
		l-0.08-1.645c3.064-0.155,4.947,1.936,5.026,2.024c0.025,0.026,1.116,1.186,2.038,3.561L58.721,60.635z"/>
</g>
<g id="XMLID_17_">
	<path id="XMLID_18_" fill="#213654" d="M43.486,21.351c-0.696,0-1.263-0.585-1.263-1.304c0-0.72,0.566-1.305,1.263-1.305
		c0.695,0,1.261,0.585,1.261,1.305C44.747,20.766,44.182,21.351,43.486,21.351z"/>
</g>
<g id="XMLID_20_">
	<path id="XMLID_21_" fill="#213654" d="M61.776,17.014c-0.33,0-0.596-0.285-0.596-0.636c0-0.353,0.266-0.639,0.596-0.639
		c0.327,0,0.594,0.286,0.594,0.639C62.369,16.729,62.103,17.014,61.776,17.014"/>
</g>
<g id="XMLID_22_">
	<path id="XMLID_23_" fill="#213654" d="M70.143,25.702c-0.751,0-1.361-0.628-1.361-1.399s0.61-1.399,1.361-1.399
		c0.749,0,1.357,0.627,1.357,1.399S70.892,25.702,70.143,25.702z M70.143,24.147c-0.105,0-0.197,0.072-0.197,0.155
		c0.001,0.169,0.391,0.173,0.391,0C70.336,24.219,70.247,24.147,70.143,24.147z M61.871,17.871c-0.75,0-1.359-0.627-1.359-1.398
		c0-0.773,0.609-1.4,1.359-1.4c0.749,0,1.358,0.628,1.358,1.4C63.23,17.244,62.62,17.871,61.871,17.871z M61.871,16.316
		c-0.107,0-0.196,0.071-0.196,0.156c0,0.165,0.392,0.167,0.392,0C62.067,16.388,61.977,16.316,61.871,16.316z"/>
</g>
<g id="XMLID_28_">
	<path id="XMLID_29_" fill="#213654" d="M63.998,31.065c-0.328,0-0.596-0.284-0.596-0.638c0-0.351,0.268-0.636,0.596-0.636
		c0.328,0,0.594,0.285,0.594,0.636C64.592,30.781,64.326,31.065,63.998,31.065"/>
</g>
<g id="XMLID_30_">
	<path id="XMLID_31_" fill="#213654" d="M63.998,31.732c-0.696,0-1.263-0.585-1.263-1.304c0-0.72,0.566-1.305,1.263-1.305
		c0.696,0,1.262,0.585,1.262,1.305C65.26,31.147,64.694,31.732,63.998,31.732z M63.998,30.178c-0.159,0-0.293,0.115-0.293,0.251
		c0,0.271,0.585,0.272,0.585,0C64.29,30.293,64.156,30.178,63.998,30.178z"/>
</g>
<g id="XMLID_34_">
	<path id="XMLID_35_" fill="#213654" d="M59.842,22.463c-0.329,0-0.596-0.284-0.596-0.637c0-0.351,0.267-0.637,0.596-0.637
		c0.328,0,0.595,0.285,0.595,0.637C60.437,22.179,60.17,22.463,59.842,22.463"/>
</g>
<g id="XMLID_36_">
	<path id="XMLID_37_" fill="#213654" d="M59.842,23.13c-0.696,0-1.263-0.585-1.263-1.304c0-0.719,0.566-1.303,1.263-1.303
		s1.262,0.584,1.262,1.303C61.104,22.545,60.538,23.13,59.842,23.13z M59.842,21.575c-0.159,0-0.293,0.115-0.293,0.251
		c0,0.273,0.585,0.274,0.585,0C60.134,21.69,60,21.575,59.842,21.575z"/>
</g>
<g id="XMLID_40_">
	<path id="XMLID_41_" fill="#213654" d="M49.209,32.226c-0.328,0-0.595-0.286-0.595-0.638c0-0.352,0.267-0.637,0.595-0.637
		c0.328,0,0.596,0.285,0.596,0.637C49.805,31.939,49.537,32.226,49.209,32.226"/>
</g>
<g id="XMLID_42_">
	<path id="XMLID_43_" fill="#213654" d="M49.209,32.893c-0.696,0-1.262-0.585-1.262-1.305c0-0.72,0.565-1.305,1.262-1.305
		s1.263,0.585,1.263,1.305C50.472,32.308,49.905,32.893,49.209,32.893z M49.209,31.338c-0.158,0-0.292,0.114-0.292,0.25
		c0,0.271,0.585,0.271,0.585,0C49.502,31.452,49.368,31.338,49.209,31.338z"/>
</g>
<g id="XMLID_46_">
	<path id="XMLID_47_" fill="#213654" d="M53.801,27.296c-0.33,0-0.596-0.285-0.596-0.637c0-0.351,0.266-0.636,0.596-0.636
		c0.328,0,0.595,0.284,0.595,0.636C54.396,27.011,54.129,27.296,53.801,27.296"/>
</g>
<g id="XMLID_48_">
	<path id="XMLID_49_" fill="#213654" d="M53.801,27.963c-0.696,0-1.263-0.585-1.263-1.304c0-0.719,0.566-1.304,1.263-1.304
		s1.262,0.585,1.262,1.304C55.063,27.378,54.497,27.963,53.801,27.963z M53.801,26.408c-0.159,0-0.293,0.115-0.293,0.251
		c0,0.271,0.585,0.274,0.585,0C54.093,26.523,53.959,26.408,53.801,26.408z"/>
</g>
<g id="XMLID_52_">
	<path id="XMLID_53_" fill="#213654" d="M43.29,19.365l10.143-4.444l0.385-0.054l7.977,1.116l-0.094,0.674l0.579-0.619l8.377,7.845
		L70,25.095l-8.679-2.136l3.292,7.111l-0.882,0.973l-9.77-3.426l-4.181,4.392l-1.154-0.175l-5.636-11.392l0.489-0.242l0.106-0.159
		 M45.373,22.042l4.079,8.246l3.212-3.373L45.373,22.042z M55.202,26.542l7.41,2.599l-2.899-6.264L55.202,26.542z M45.083,20.135
		l8.64,5.773l5.663-4.602l0.619-0.139l0.486,0.119l0.046-0.021l0.017,0.037l7.14,1.757l-6.091-5.703l-0.005,0.039l-7.777-1.089
		L45.083,20.135z"/>
</g>
<g id="XMLID_58_">
	<path id="XMLID_59_" fill="#213654" d="M65.19,67.118l-0.801-1.438c3.859-2.15,7.216-4.971,9.976-8.38
		c4.899-6.054,7.598-13.684,7.598-21.486c0-18.841-15.324-34.168-34.161-34.168c-5.173,0-10.14,1.125-14.763,3.346l-0.713-1.484
		C37.173,1.181,42.379,0,47.801,0c19.744,0,35.808,16.066,35.808,35.815c0,8.178-2.829,16.177-7.965,22.521
		C72.751,61.91,69.235,64.865,65.19,67.118z M54.461,66.359L54.1,64.754c13.359-3.012,23.056-15.153,23.056-28.872
		c0-16.319-13.274-29.596-29.59-29.596c-5.931,0-11.651,1.747-16.544,5.054L30.1,9.977C35.266,6.485,41.305,4.64,47.566,4.64
		c17.224,0,31.236,14.016,31.236,31.242C78.802,50.363,68.566,63.181,54.461,66.359z"/>
</g>
<g id="XMLID_62_">
	<polygon id="XMLID_63_" fill="#213654" points="59.634,22.086 53.083,16.162 45.122,11.763 45.812,10.515 53.978,15.05 
		60.589,21.029 	"/>
</g>
<g id="XMLID_64_">
	<path id="XMLID_65_" fill="#213654" d="M53.59,16.806c-0.696,0-1.263-0.584-1.263-1.303c0-0.72,0.567-1.305,1.263-1.305
		c0.696,0,1.262,0.585,1.262,1.305C54.852,16.222,54.286,16.806,53.59,16.806z M53.59,15.251c-0.159,0-0.293,0.115-0.293,0.252
		c0.001,0.271,0.586,0.272,0.585,0C53.882,15.366,53.748,15.251,53.59,15.251z"/>
</g>
<g id="XMLID_68_">
	<path id="XMLID_69_" fill="#213654" d="M45.555,12.443c-0.695,0-1.262-0.584-1.262-1.303c0-0.72,0.566-1.305,1.262-1.305
		c0.695,0,1.262,0.585,1.262,1.305C46.817,11.859,46.25,12.443,45.555,12.443z"/>
</g>
</svg>
