<svg xmlns="http://www.w3.org/2000/svg" version="1.1" x="0px" y="0px" viewBox="0 0 233 133.3" xml:space="preserve"><style type="text/css">
	.st0{fill:#AA0E20;}
</style><polygon class="st0" points="137.3 74.6 116.5 114.9 89.6 63.9 89.7 63.7 84.2 53.8 78.2 63.9 116.5 133.3 154.8 63.9 148.8 53.8 "/><polygon class="st0" points="116.5 0 111.8 7.5 90.1 43.9 95.6 54.3 116.5 21 137 54.3 142.6 43.4 124.4 12.9 "/><path class="st0" d="M116.5 19.8C52.2 19.8 0 67.7 0 67.8c0 0 52.2 48 116.5 48s116.5-48 116.5-48C233 67.9 180.8 19.8 116.5 19.8zM116.5 105.2C66.4 105.2 9.8 67.8 9.8 67.8c0 0 56.6-37.4 106.7-37.4s106.7 36.5 106.7 37.4C223.2 68.7 166.6 105.2 116.5 105.2z"/></svg>
