<?xml version="1.0" encoding="UTF-8" standalone="no"?>
<!-- Created with Inkscape (http://www.inkscape.org/) -->

<svg
   xmlns:dc="http://purl.org/dc/elements/1.1/"
   xmlns:cc="http://creativecommons.org/ns#"
   xmlns:rdf="http://www.w3.org/1999/02/22-rdf-syntax-ns#"
   xmlns:svg="http://www.w3.org/2000/svg"
   xmlns="http://www.w3.org/2000/svg"
   xmlns:sodipodi="http://sodipodi.sourceforge.net/DTD/sodipodi-0.dtd"
   xmlns:inkscape="http://www.inkscape.org/namespaces/inkscape"
   width="234.25655mm"
   height="239.53612mm"
   viewBox="0 0 830.04288 848.75002"
   id="svg3844"
   version="1.1"
   inkscape:version="0.91 r13725"
   sodipodi:docname="parity.svg">
  <defs
     id="defs3846">
    <clipPath
       clipPathUnits="userSpaceOnUse"
       id="clipPath3617">
      <path
         d="m 823,258 222,0 0,86 -222,0 0,-86 z"
         id="path3619"
         inkscape:connector-curvature="0" />
    </clipPath>
    <clipPath
       clipPathUnits="userSpaceOnUse"
       id="clipPath3549">
      <path
         d="m 551.0085,479.9361 325.5758,0 0,79.24058 -325.5758,0 0,-79.24058 z"
         id="path3551"
         inkscape:connector-curvature="0" />
    </clipPath>
    <clipPath
       clipPathUnits="userSpaceOnUse"
       id="clipPath3481">
      <path
         d="m 551.0085,627.9283 325.5758,0 0,79.24298 -325.5758,0 0,-79.24298 z"
         id="path3483"
         inkscape:connector-curvature="0" />
    </clipPath>
    <clipPath
       clipPathUnits="userSpaceOnUse"
       id="clipPath3393">
      <path
         d="m 381,263 668,0 0,674 -668,0 0,-674 z"
         id="path3395"
         inkscape:connector-curvature="0" />
    </clipPath>
    <clipPath
       clipPathUnits="userSpaceOnUse"
       id="clipPath3381">
      <path
         d="m 381,263 668,0 0,674 -668,0 0,-674 z"
         id="path3383"
         inkscape:connector-curvature="0" />
    </clipPath>
  </defs>
  <sodipodi:namedview
     id="base"
     pagecolor="#ffffff"
     bordercolor="#666666"
     borderopacity="1.0"
     inkscape:pageopacity="0.0"
     inkscape:pageshadow="2"
     inkscape:zoom="0.35"
     inkscape:cx="404.3071"
     inkscape:cy="398.6607"
     inkscape:document-units="px"
     inkscape:current-layer="layer1"
     showgrid="false"
     inkscape:window-width="2560"
     inkscape:window-height="1657"
     inkscape:window-x="0"
     inkscape:window-y="0"
     inkscape:window-maximized="1"
     fit-margin-top="0"
     fit-margin-left="0"
     fit-margin-right="0"
     fit-margin-bottom="0" />
  <metadata
     id="metadata3849">
    <rdf:RDF>
      <cc:Work
         rdf:about="">
        <dc:format>image/svg+xml</dc:format>
        <dc:type
           rdf:resource="http://purl.org/dc/dcmitype/StillImage" />
        <dc:title></dc:title>
      </cc:Work>
    </rdf:RDF>
  </metadata>
  <g
     inkscape:label="Layer 1"
     inkscape:groupmode="layer"
     id="layer1"
     transform="translate(29.3071,-82.2729)">
    <g
       transform="matrix(1.25,0,0,-1.25,-505.5571,1253.5229)"
       id="g3377">
      <g
         id="g3379"
         clip-path="url(#clipPath3381)">
        <g
           id="g3385"
           transform="matrix(2.40485,0,0,2.401303,381.6363,681.4832)">
          <path
             d="M 0,0 169.609,105.984"
             style="fill:none;stroke:#ffffff;stroke-width:1;stroke-linecap:butt;stroke-linejoin:miter;stroke-miterlimit:10;stroke-dasharray:none;stroke-opacity:1"
             id="path3387"
             inkscape:connector-curvature="0" />
        </g>
      </g>
    </g>
    <g
       transform="matrix(1.25,0,0,-1.25,-505.5571,1253.5229)"
       id="g3389">
      <g
         id="g3391"
         clip-path="url(#clipPath3393)">
        <g
           id="g3397"
           transform="matrix(2.40485,0,0,2.401303,394.3794,661.1192)">
          <path
             d="M 0,0 169.609,105.984"
             style="fill:none;stroke:#ffffff;stroke-width:1;stroke-linecap:butt;stroke-linejoin:miter;stroke-miterlimit:10;stroke-dasharray:none;stroke-opacity:1"
             id="path3399"
             inkscape:connector-curvature="0" />
        </g>
        <g
           id="g3401"
           transform="matrix(2.40485,0,0,2.401303,407.1222,640.7549)">
          <path
             d="M 0,0 169.609,105.984"
             style="fill:none;stroke:#ffffff;stroke-width:1;stroke-linecap:butt;stroke-linejoin:miter;stroke-miterlimit:10;stroke-dasharray:none;stroke-opacity:1"
             id="path3403"
             inkscape:connector-curvature="0" />
        </g>
        <g
           id="g3405"
           transform="matrix(2.40485,0,0,2.401303,419.8674,620.3907)">
          <path
             d="M 0,0 169.609,105.984"
             style="fill:none;stroke:#ffffff;stroke-width:1;stroke-linecap:butt;stroke-linejoin:miter;stroke-miterlimit:10;stroke-dasharray:none;stroke-opacity:1"
             id="path3407"
             inkscape:connector-curvature="0" />
        </g>
        <g
           id="g3409"
           transform="matrix(2.40485,0,0,2.401303,432.6127,600.0267)">
          <path
             d="M 0,0 169.609,105.984"
             style="fill:none;stroke:#ffffff;stroke-width:1;stroke-linecap:butt;stroke-linejoin:miter;stroke-miterlimit:10;stroke-dasharray:none;stroke-opacity:1"
             id="path3411"
             inkscape:connector-curvature="0" />
        </g>
        <g
           id="g3413"
           transform="matrix(2.40485,0,0,2.401303,445.3555,579.6624)">
          <path
             d="M 0,0 169.609,105.984"
             style="fill:none;stroke:#ffffff;stroke-width:1;stroke-linecap:butt;stroke-linejoin:miter;stroke-miterlimit:10;stroke-dasharray:none;stroke-opacity:1"
             id="path3415"
             inkscape:connector-curvature="0" />
        </g>
        <g
           id="g3417"
           transform="matrix(2.40485,0,0,2.401303,458.0985,559.2958)">
          <path
             d="M 0,0 169.609,105.985"
             style="fill:none;stroke:#ffffff;stroke-width:1;stroke-linecap:butt;stroke-linejoin:miter;stroke-miterlimit:10;stroke-dasharray:none;stroke-opacity:1"
             id="path3419"
             inkscape:connector-curvature="0" />
        </g>
        <g
           id="g3421"
           transform="matrix(2.40485,0,0,2.401303,470.8413,538.9318)">
          <path
             d="M 0,0 169.609,105.985"
             style="fill:none;stroke:#ffffff;stroke-width:1;stroke-linecap:butt;stroke-linejoin:miter;stroke-miterlimit:10;stroke-dasharray:none;stroke-opacity:1"
             id="path3423"
             inkscape:connector-curvature="0" />
        </g>
        <g
           id="g3425"
           transform="matrix(2.40485,0,0,2.401303,483.5866,518.5675)">
          <path
             d="M 0,0 169.609,105.985"
             style="fill:none;stroke:#ffffff;stroke-width:1;stroke-linecap:butt;stroke-linejoin:miter;stroke-miterlimit:10;stroke-dasharray:none;stroke-opacity:1"
             id="path3427"
             inkscape:connector-curvature="0" />
        </g>
        <g
           id="g3429"
           transform="matrix(2.40485,0,0,2.401303,496.3318,498.2033)">
          <path
             d="M 0,0 169.609,105.985"
             style="fill:none;stroke:#ffffff;stroke-width:1;stroke-linecap:butt;stroke-linejoin:miter;stroke-miterlimit:10;stroke-dasharray:none;stroke-opacity:1"
             id="path3431"
             inkscape:connector-curvature="0" />
        </g>
        <g
           id="g3433"
           transform="matrix(2.40485,0,0,2.401303,509.0746,477.8393)">
          <path
             d="M 0,0 169.609,105.985"
             style="fill:none;stroke:#ffffff;stroke-width:1;stroke-linecap:butt;stroke-linejoin:miter;stroke-miterlimit:10;stroke-dasharray:none;stroke-opacity:1"
             id="path3435"
             inkscape:connector-curvature="0" />
        </g>
        <g
           id="g3437"
           transform="matrix(2.40485,0,0,2.401303,521.8177,457.475)">
          <path
             d="M 0,0 169.609,105.984"
             style="fill:none;stroke:#ffffff;stroke-width:1;stroke-linecap:butt;stroke-linejoin:miter;stroke-miterlimit:10;stroke-dasharray:none;stroke-opacity:1"
             id="path3439"
             inkscape:connector-curvature="0" />
        </g>
        <g
           id="g3441"
           transform="matrix(2.40485,0,0,2.401303,534.5605,437.1108)">
          <path
             d="M 0,0 169.609,105.984"
             style="fill:none;stroke:#ffffff;stroke-width:1;stroke-linecap:butt;stroke-linejoin:miter;stroke-miterlimit:10;stroke-dasharray:none;stroke-opacity:1"
             id="path3443"
             inkscape:connector-curvature="0" />
        </g>
        <g
           id="g3445"
           transform="matrix(2.40485,0,0,2.401303,547.3057,416.7468)">
          <path
             d="M 0,0 169.609,105.984"
             style="fill:none;stroke:#ffffff;stroke-width:1;stroke-linecap:butt;stroke-linejoin:miter;stroke-miterlimit:10;stroke-dasharray:none;stroke-opacity:1"
             id="path3447"
             inkscape:connector-curvature="0" />
        </g>
        <g
           id="g3449"
           transform="matrix(2.40485,0,0,2.401303,560.0509,396.3825)">
          <path
             d="M 0,0 169.609,105.984"
             style="fill:none;stroke:#ffffff;stroke-width:1;stroke-linecap:butt;stroke-linejoin:miter;stroke-miterlimit:10;stroke-dasharray:none;stroke-opacity:1"
             id="path3451"
             inkscape:connector-curvature="0" />
        </g>
        <g
           id="g3453"
           transform="matrix(2.40485,0,0,2.401303,572.7938,376.0183)">
          <path
             d="M 0,0 169.609,105.984"
             style="fill:none;stroke:#ffffff;stroke-width:1;stroke-linecap:butt;stroke-linejoin:miter;stroke-miterlimit:10;stroke-dasharray:none;stroke-opacity:1"
             id="path3455"
             inkscape:connector-curvature="0" />
        </g>
        <g
           id="g3457"
           transform="matrix(2.40485,0,0,2.401303,585.5368,355.6543)">
          <path
             d="M 0,0 169.609,105.984"
             style="fill:none;stroke:#ffffff;stroke-width:1;stroke-linecap:butt;stroke-linejoin:miter;stroke-miterlimit:10;stroke-dasharray:none;stroke-opacity:1"
             id="path3459"
             inkscape:connector-curvature="0" />
        </g>
        <g
           id="g3461"
           transform="matrix(2.40485,0,0,2.401303,598.2796,335.29)">
          <path
             d="M 0,0 169.609,105.984"
             style="fill:none;stroke:#ffffff;stroke-width:1;stroke-linecap:butt;stroke-linejoin:miter;stroke-miterlimit:10;stroke-dasharray:none;stroke-opacity:1"
             id="path3463"
             inkscape:connector-curvature="0" />
        </g>
        <g
           id="g3465"
           transform="matrix(2.40485,0,0,2.401303,611.0249,314.9258)">
          <path
             d="M 0,0 169.609,105.984"
             style="fill:none;stroke:#ffffff;stroke-width:1;stroke-linecap:butt;stroke-linejoin:miter;stroke-miterlimit:10;stroke-dasharray:none;stroke-opacity:1"
             id="path3467"
             inkscape:connector-curvature="0" />
        </g>
        <g
           id="g3469"
           transform="matrix(2.40485,0,0,2.401303,623.7701,294.5639)">
          <path
             d="M 0,0 169.609,105.983"
             style="fill:none;stroke:#ffffff;stroke-width:1;stroke-linecap:butt;stroke-linejoin:miter;stroke-miterlimit:10;stroke-dasharray:none;stroke-opacity:1"
             id="path3471"
             inkscape:connector-curvature="0" />
        </g>
        <g
           id="g3473"
           transform="matrix(2.40485,0,0,2.401303,636.5129,274.1999)">
          <path
             d="M 0,0 169.609,105.983"
             style="fill:none;stroke:#ffffff;stroke-width:1;stroke-linecap:butt;stroke-linejoin:miter;stroke-miterlimit:10;stroke-dasharray:none;stroke-opacity:1"
             id="path3475"
             inkscape:connector-curvature="0" />
        </g>
      </g>
    </g>
    <g
       transform="matrix(1.25,0,0,-1.25,-505.5571,1253.5229)"
       id="g3477">
      <g
         id="g3479"
         clip-path="url(#clipPath3481)">
        <g
           id="g3485"
           transform="matrix(2.40485,0,0,2.401303,385.6031,671.3012)">
          <path
             d="M 0,0 169.609,105.984"
             style="fill:none;stroke:#ffffff;stroke-width:1;stroke-linecap:butt;stroke-linejoin:miter;stroke-miterlimit:10;stroke-dasharray:none;stroke-opacity:1"
             id="path3487"
             inkscape:connector-curvature="0" />
        </g>
        <g
           id="g3489"
           transform="matrix(2.40485,0,0,2.401303,398.3483,650.9369)">
          <path
             d="M 0,0 169.609,105.984"
             style="fill:none;stroke:#ffffff;stroke-width:1;stroke-linecap:butt;stroke-linejoin:miter;stroke-miterlimit:10;stroke-dasharray:none;stroke-opacity:1"
             id="path3491"
             inkscape:connector-curvature="0" />
        </g>
        <g
           id="g3493"
           transform="matrix(2.40485,0,0,2.401303,411.0912,630.5729)">
          <path
             d="M 0,0 169.609,105.984"
             style="fill:none;stroke:#ffffff;stroke-width:1;stroke-linecap:butt;stroke-linejoin:miter;stroke-miterlimit:10;stroke-dasharray:none;stroke-opacity:1"
             id="path3495"
             inkscape:connector-curvature="0" />
        </g>
        <g
           id="g3497"
           transform="matrix(2.40485,0,0,2.401303,423.834,610.2087)">
          <path
             d="M 0,0 169.609,105.984"
             style="fill:none;stroke:#ffffff;stroke-width:1;stroke-linecap:butt;stroke-linejoin:miter;stroke-miterlimit:10;stroke-dasharray:none;stroke-opacity:1"
             id="path3499"
             inkscape:connector-curvature="0" />
        </g>
        <g
           id="g3501"
           transform="matrix(2.40485,0,0,2.401303,436.577,589.8444)">
          <path
             d="M 0,0 169.609,105.984"
             style="fill:none;stroke:#ffffff;stroke-width:1;stroke-linecap:butt;stroke-linejoin:miter;stroke-miterlimit:10;stroke-dasharray:none;stroke-opacity:1"
             id="path3503"
             inkscape:connector-curvature="0" />
        </g>
        <g
           id="g3505"
           transform="matrix(2.40485,0,0,2.401303,449.3223,569.478)">
          <path
             d="M 0,0 169.609,105.985"
             style="fill:none;stroke:#ffffff;stroke-width:1;stroke-linecap:butt;stroke-linejoin:miter;stroke-miterlimit:10;stroke-dasharray:none;stroke-opacity:1"
             id="path3507"
             inkscape:connector-curvature="0" />
        </g>
        <g
           id="g3509"
           transform="matrix(2.40485,0,0,2.401303,462.0675,549.1138)">
          <path
             d="M 0,0 169.609,105.985"
             style="fill:none;stroke:#ffffff;stroke-width:1;stroke-linecap:butt;stroke-linejoin:miter;stroke-miterlimit:10;stroke-dasharray:none;stroke-opacity:1"
             id="path3511"
             inkscape:connector-curvature="0" />
        </g>
        <g
           id="g3513"
           transform="matrix(2.40485,0,0,2.401303,474.8103,528.7495)">
          <path
             d="M 0,0 169.609,105.985"
             style="fill:none;stroke:#ffffff;stroke-width:1;stroke-linecap:butt;stroke-linejoin:miter;stroke-miterlimit:10;stroke-dasharray:none;stroke-opacity:1"
             id="path3515"
             inkscape:connector-curvature="0" />
        </g>
        <g
           id="g3517"
           transform="matrix(2.40485,0,0,2.401303,487.5531,508.3855)">
          <path
             d="M 0,0 169.609,105.985"
             style="fill:none;stroke:#ffffff;stroke-width:1;stroke-linecap:butt;stroke-linejoin:miter;stroke-miterlimit:10;stroke-dasharray:none;stroke-opacity:1"
             id="path3519"
             inkscape:connector-curvature="0" />
        </g>
        <g
           id="g3521"
           transform="matrix(2.40485,0,0,2.401303,500.296,488.0213)">
          <path
             d="M 0,0 169.609,105.985"
             style="fill:none;stroke:#ffffff;stroke-width:1;stroke-linecap:butt;stroke-linejoin:miter;stroke-miterlimit:10;stroke-dasharray:none;stroke-opacity:1"
             id="path3523"
             inkscape:connector-curvature="0" />
        </g>
        <g
           id="g3525"
           transform="matrix(2.40485,0,0,2.401303,513.0414,467.657)">
          <path
             d="M 0,0 169.609,105.985"
             style="fill:none;stroke:#ffffff;stroke-width:1;stroke-linecap:butt;stroke-linejoin:miter;stroke-miterlimit:10;stroke-dasharray:none;stroke-opacity:1"
             id="path3527"
             inkscape:connector-curvature="0" />
        </g>
        <g
           id="g3529"
           transform="matrix(2.40485,0,0,2.401303,525.7866,447.293)">
          <path
             d="M 0,0 169.609,105.984"
             style="fill:none;stroke:#ffffff;stroke-width:1;stroke-linecap:butt;stroke-linejoin:miter;stroke-miterlimit:10;stroke-dasharray:none;stroke-opacity:1"
             id="path3531"
             inkscape:connector-curvature="0" />
        </g>
        <g
           id="g3533"
           transform="matrix(2.40485,0,0,2.401303,538.5295,426.9288)">
          <path
             d="M 0,0 169.609,105.984"
             style="fill:none;stroke:#ffffff;stroke-width:1;stroke-linecap:butt;stroke-linejoin:miter;stroke-miterlimit:10;stroke-dasharray:none;stroke-opacity:1"
             id="path3535"
             inkscape:connector-curvature="0" />
        </g>
        <g
           id="g3537"
           transform="matrix(2.40485,0,0,2.401303,551.2723,406.5645)">
          <path
             d="M 0,0 169.609,105.984"
             style="fill:none;stroke:#ffffff;stroke-width:1;stroke-linecap:butt;stroke-linejoin:miter;stroke-miterlimit:10;stroke-dasharray:none;stroke-opacity:1"
             id="path3539"
             inkscape:connector-curvature="0" />
        </g>
        <g
           id="g3541"
           transform="matrix(2.40485,0,0,2.401303,564.0151,386.2005)">
          <path
             d="M 0,0 169.609,105.984"
             style="fill:none;stroke:#ffffff;stroke-width:1;stroke-linecap:butt;stroke-linejoin:miter;stroke-miterlimit:10;stroke-dasharray:none;stroke-opacity:1"
             id="path3543"
             inkscape:connector-curvature="0" />
        </g>
      </g>
    </g>
    <g
       transform="matrix(1.25,0,0,-1.25,-505.5571,1253.5229)"
       id="g3545">
      <g
         id="g3547"
         clip-path="url(#clipPath3549)">
        <g
           id="g3553"
           transform="matrix(2.40485,0,0,2.401303,462.0675,549.1138)">
          <path
             d="M 0,0 169.609,105.985"
             style="fill:none;stroke:#ffffff;stroke-width:1;stroke-linecap:butt;stroke-linejoin:miter;stroke-miterlimit:10;stroke-dasharray:none;stroke-opacity:1"
             id="path3555"
             inkscape:connector-curvature="0" />
        </g>
        <g
           id="g3557"
           transform="matrix(2.40485,0,0,2.401303,474.8103,528.7495)">
          <path
             d="M 0,0 169.609,105.985"
             style="fill:none;stroke:#ffffff;stroke-width:1;stroke-linecap:butt;stroke-linejoin:miter;stroke-miterlimit:10;stroke-dasharray:none;stroke-opacity:1"
             id="path3559"
             inkscape:connector-curvature="0" />
        </g>
        <g
           id="g3561"
           transform="matrix(2.40485,0,0,2.401303,487.5531,508.3855)">
          <path
             d="M 0,0 169.609,105.985"
             style="fill:none;stroke:#ffffff;stroke-width:1;stroke-linecap:butt;stroke-linejoin:miter;stroke-miterlimit:10;stroke-dasharray:none;stroke-opacity:1"
             id="path3563"
             inkscape:connector-curvature="0" />
        </g>
        <g
           id="g3565"
           transform="matrix(2.40485,0,0,2.401303,500.296,488.0213)">
          <path
             d="M 0,0 169.609,105.985"
             style="fill:none;stroke:#ffffff;stroke-width:1;stroke-linecap:butt;stroke-linejoin:miter;stroke-miterlimit:10;stroke-dasharray:none;stroke-opacity:1"
             id="path3567"
             inkscape:connector-curvature="0" />
        </g>
        <g
           id="g3569"
           transform="matrix(2.40485,0,0,2.401303,513.0414,467.657)">
          <path
             d="M 0,0 169.609,105.985"
             style="fill:none;stroke:#ffffff;stroke-width:1;stroke-linecap:butt;stroke-linejoin:miter;stroke-miterlimit:10;stroke-dasharray:none;stroke-opacity:1"
             id="path3571"
             inkscape:connector-curvature="0" />
        </g>
        <g
           id="g3573"
           transform="matrix(2.40485,0,0,2.401303,525.7866,447.293)">
          <path
             d="M 0,0 169.609,105.984"
             style="fill:none;stroke:#ffffff;stroke-width:1;stroke-linecap:butt;stroke-linejoin:miter;stroke-miterlimit:10;stroke-dasharray:none;stroke-opacity:1"
             id="path3575"
             inkscape:connector-curvature="0" />
        </g>
        <g
           id="g3577"
           transform="matrix(2.40485,0,0,2.401303,538.5295,426.9288)">
          <path
             d="M 0,0 169.609,105.984"
             style="fill:none;stroke:#ffffff;stroke-width:1;stroke-linecap:butt;stroke-linejoin:miter;stroke-miterlimit:10;stroke-dasharray:none;stroke-opacity:1"
             id="path3579"
             inkscape:connector-curvature="0" />
        </g>
        <g
           id="g3581"
           transform="matrix(2.40485,0,0,2.401303,551.2723,406.5645)">
          <path
             d="M 0,0 169.609,105.984"
             style="fill:none;stroke:#ffffff;stroke-width:1;stroke-linecap:butt;stroke-linejoin:miter;stroke-miterlimit:10;stroke-dasharray:none;stroke-opacity:1"
             id="path3583"
             inkscape:connector-curvature="0" />
        </g>
        <g
           id="g3585"
           transform="matrix(2.40485,0,0,2.401303,564.0151,386.2005)">
          <path
             d="M 0,0 169.609,105.984"
             style="fill:none;stroke:#ffffff;stroke-width:1;stroke-linecap:butt;stroke-linejoin:miter;stroke-miterlimit:10;stroke-dasharray:none;stroke-opacity:1"
             id="path3587"
             inkscape:connector-curvature="0" />
        </g>
        <g
           id="g3589"
           transform="matrix(2.40485,0,0,2.401303,576.7603,365.8363)">
          <path
             d="M 0,0 169.609,105.984"
             style="fill:none;stroke:#ffffff;stroke-width:1;stroke-linecap:butt;stroke-linejoin:miter;stroke-miterlimit:10;stroke-dasharray:none;stroke-opacity:1"
             id="path3591"
             inkscape:connector-curvature="0" />
        </g>
        <g
           id="g3593"
           transform="matrix(2.40485,0,0,2.401303,589.5055,345.472)">
          <path
             d="M 0,0 169.609,105.984"
             style="fill:none;stroke:#ffffff;stroke-width:1;stroke-linecap:butt;stroke-linejoin:miter;stroke-miterlimit:10;stroke-dasharray:none;stroke-opacity:1"
             id="path3595"
             inkscape:connector-curvature="0" />
        </g>
        <g
           id="g3597"
           transform="matrix(2.40485,0,0,2.401303,602.2486,325.108)">
          <path
             d="M 0,0 169.609,105.984"
             style="fill:none;stroke:#ffffff;stroke-width:1;stroke-linecap:butt;stroke-linejoin:miter;stroke-miterlimit:10;stroke-dasharray:none;stroke-opacity:1"
             id="path3599"
             inkscape:connector-curvature="0" />
        </g>
        <g
           id="g3601"
           transform="matrix(2.40485,0,0,2.401303,614.9914,304.7462)">
          <path
             d="M 0,0 169.609,105.983"
             style="fill:none;stroke:#ffffff;stroke-width:1;stroke-linecap:butt;stroke-linejoin:miter;stroke-miterlimit:10;stroke-dasharray:none;stroke-opacity:1"
             id="path3603"
             inkscape:connector-curvature="0" />
        </g>
        <g
           id="g3605"
           transform="matrix(2.40485,0,0,2.401303,627.7342,284.3819)">
          <path
             d="M 0,0 169.609,105.983"
             style="fill:none;stroke:#ffffff;stroke-width:1;stroke-linecap:butt;stroke-linejoin:miter;stroke-miterlimit:10;stroke-dasharray:none;stroke-opacity:1"
             id="path3607"
             inkscape:connector-curvature="0" />
        </g>
        <g
           id="g3609"
           transform="matrix(2.40485,0,0,2.401303,640.4795,264.0177)">
          <path
             d="M 0,0 169.609,105.983"
             style="fill:none;stroke:#ffffff;stroke-width:1;stroke-linecap:butt;stroke-linejoin:miter;stroke-miterlimit:10;stroke-dasharray:none;stroke-opacity:1"
             id="path3611"
             inkscape:connector-curvature="0" />
        </g>
      </g>
    </g>
    <g
       transform="matrix(1.25,0,0,-1.25,-505.5571,1253.5229)"
       id="g3613">
      <g
         id="g3615"
         clip-path="url(#clipPath3617)">
        <path
           d="m 843.2802,316.6848 c -1.5949,0 -3.1708,-0.1087 -4.6826,-0.3246 -5.2175,-0.7447 -7.594,-5.0153 -7.594,-8.6698 l 0.0111,-18.5127 c 0,-4.5425 3.7064,-8.126 8.813,-8.5224 1.1749,-0.0906 2.3465,-0.1371 3.481,-0.1371 1.0656,0 2.1218,0.041 3.1383,0.1214 5.295,0.4144 8.5323,3.3582 9.1177,8.2891 0.5435,4.6016 0.6558,14.4887 0.0111,19.4677 -0.4391,3.4008 -2.6099,7.2727 -7.3867,7.9448 -1.6163,0.2278 -3.2673,0.3436 -4.9089,0.3436 m -13.4728,-58.6852 c -2.3543,0 -6.8076,1.2867 -6.8076,6.1523 l 0,46.1608 c 0,4.6591 3.4738,8.6855 5.8084,10.2535 2.7167,1.8264 7.1201,2.7349 9.0694,2.9611 2.2721,0.2632 4.2523,0.3908 6.0529,0.3908 2.496,0 4.7404,-0.2403 6.8637,-0.7336 6.7159,-1.5617 10.8012,-5.9182 12.1429,-12.9498 0.2983,-1.5727 0.4502,-3.2944 0.4787,-5.4163 l 0.0237,-1.7469 c 0.0562,-3.9444 0.1139,-8.0228 -0.0728,-12.0358 -0.1234,-2.5632 -0.6186,-5.0878 -1.4343,-7.3011 -2.0134,-5.4794 -6.1549,-8.8344 -12.3074,-9.9754 -1.7073,-0.3151 -3.4912,-0.4759 -5.3045,-0.4759 -1.4802,0 -3.0308,0.1072 -4.6067,0.3176 -3.9579,0.5287 -6.9049,2.2149 -8.9934,5.1484 l 0.004,-20.7497 -0.9169,0 z"
           style="fill:#ffffff;fill-opacity:1;fill-rule:evenodd;stroke:none"
           id="path3621"
           inkscape:connector-curvature="0" />
        <path
           d="m 1013.342,258.1886 c -0.568,0 -0.926,0.0512 -0.965,0.0567 l -1.156,0.1741 6.817,16.5161 c 0.496,1.2189 1.106,2.9753 0.655,4.1052 -4.09,10.1967 -7.995,20.0208 -11.977,30.0419 l -3.882,9.7649 c -0.692,1.7382 -1.101,2.943 -0.503,3.8192 0.612,0.899 1.89,0.899 3.659,0.899 2.599,0 3.341,-1.3466 3.98,-2.9721 0.925,-2.3528 11.513,-29.2082 13.483,-34.1163 l 13.521,33.8287 c 0.935,2.2961 2.508,3.5568 4.429,3.5568 0.67,0 1.378,-0.1529 2.108,-0.4554 1.774,-0.7336 1.55,-2.0645 1.371,-2.6034 l -22.725,-56.6484 c -2.308,-5.3871 -6.933,-5.967 -8.815,-5.967"
           style="fill:#ffffff;fill-opacity:1;fill-rule:evenodd;stroke:none"
           id="path3623"
           inkscape:connector-curvature="0" />
        <path
           d="m 891.4655,296.6981 c -3.0245,0 -5.6399,-0.0906 -7.5631,-0.2648 -4.9263,-0.4436 -6.8108,-2.2976 -6.9556,-6.8417 -0.0324,-1.1094 -0.0221,-1.999 0.0333,-2.7948 0.261,-3.8105 2.473,-5.9907 6.2284,-6.1428 1.3829,-0.0552 2.5348,-0.0804 3.625,-0.0804 1.1819,0 2.257,0.0307 3.2871,0.0938 4.2245,0.2568 7.4642,2.1495 9.9056,5.7851 1.5292,2.2755 1.473,4.7883 1.4129,7.4476 -0.0111,0.4507 -0.0206,0.9006 -0.0229,1.3529 -8e-4,0.2143 -0.005,0.8273 -0.0649,1.0558 -0.2025,0.0607 -0.7294,0.0969 -1.1614,0.1269 -2.3955,0.1639 -5.6573,0.2624 -8.7244,0.2624 m 16.566,-23.3476 c -2.2776,0 -6.5829,1.2946 -6.5829,6.1925 0,0.1158 0.002,0.223 0.004,0.3223 l -0.1219,-0.1316 c -2.4089,-3.6183 -7.3352,-6.1641 -12.2884,-6.3438 -0.7073,-0.0252 -1.4177,-0.0394 -2.1282,-0.0394 -2.3638,0 -4.4793,0.1521 -6.4666,0.4665 -5.3068,0.8352 -8.9238,4.0264 -10.4594,9.2284 -1.0822,3.6616 -1.1036,7.3476 -0.064,10.9571 1.4754,5.1153 5.0149,8.1552 10.2378,8.7903 3.3314,0.4042 7.3606,0.6178 11.6532,0.6178 2.9462,0 5.9437,-0.1017 8.4405,-0.2892 0.2128,-0.0166 0.4035,-0.0252 0.5728,-0.0252 0.4343,0 0.5482,0.0622 0.5537,0.0646 0.0712,0.1528 0.0301,1.0401 0.0167,1.3308 -0.1068,2.2378 -0.2864,4.8805 -0.8109,7.4926 -0.4423,2.2086 -1.9604,3.5835 -4.6392,4.2028 -1.7887,0.4129 -3.6004,0.6225 -5.3843,0.6225 -3.6756,0 -8.855,-0.9038 -12.6651,-5.2091 -0.5941,-0.6713 -1.4928,-1.6862 -2.6637,-1.6862 -0.3836,0 -0.7515,0.1103 -1.0909,0.3262 -0.9834,0.6257 -2.0284,1.3388 -3.0173,2.3095 -0.5087,0.494 -0.7334,1.5649 0.3148,2.9461 0.8861,1.1654 4.2088,5.1114 9.7925,6.9733 2.6764,0.892 5.9207,1.3639 9.3811,1.3639 2.5593,0 5.1059,-0.2616 7.3677,-0.7548 5.1961,-1.1339 8.6335,-4.4156 9.9365,-9.4892 0.5379,-2.0944 0.8646,-4.392 0.9707,-6.8291 0.3837,-8.9124 0.0617,-32.2741 0.0585,-32.5097 l -0.0134,-0.8999 -0.9043,0 z"
           style="fill:#ffffff;fill-opacity:1;fill-rule:evenodd;stroke:none"
           id="path3625"
           inkscape:connector-curvature="0" />
        <path
           d="m 925.6902,273.3502 c -2.3108,0 -6.6802,1.2694 -6.6802,6.0782 l 0.004,44.3194 0.9177,0 c 2.3536,0 6.8068,-1.211 6.8068,-5.7969 l 0,-0.0835 c 0.0245,0.0236 0.0498,0.0473 0.0735,0.0701 1.3315,1.3151 2.5799,2.4143 4.3425,3.5135 2.3647,1.4758 5.219,2.2243 8.4848,2.2243 0.9762,0 1.9983,-0.0685 3.0363,-0.2033 1.9888,-0.2592 3.0933,-0.4412 4.628,-0.9983 0.6954,-0.2521 2.2381,-1.0448 1.5522,-2.9689 -0.2729,-0.7927 -0.6281,-1.5452 -0.9834,-2.0849 l -0.0664,-0.1017 c -0.4114,-0.628 -0.8378,-1.278 -1.9422,-1.278 -0.3639,0 -0.8054,0.0662 -1.5237,0.2285 -1.6645,0.379 -3.2982,0.5704 -4.8543,0.5704 -2.0783,0 -3.9374,-0.3348 -5.5252,-0.9967 -1.5601,-0.6493 -3.3449,-1.6704 -4.3029,-2.3433 -2.1321,-1.4956 -3.0181,-3.3354 -2.9635,-6.1531 0,-4.8781 -0.0238,-11.355 -0.0451,-17.6129 -0.0214,-5.8457 -0.0412,-11.5016 -0.0412,-15.4689 l 0,-0.914 -0.9177,0 z"
           style="fill:#ffffff;fill-opacity:1;fill-rule:evenodd;stroke:none"
           id="path3627"
           inkscape:connector-curvature="0" />
        <path
           d="m 961.6128,274.0605 c -2.3109,0 -6.681,1.1456 -6.681,5.4825 l 0,44.3517 0.9382,-0.0205 c 2.3053,-0.0504 6.6668,-1.5105 6.6668,-6.6762 l 0,-1.5751 c 8e-4,-7.0584 0.002,-34.6206 -0.005,-40.6492 l -8e-4,-0.9132 -0.9177,0 z"
           style="fill:#ffffff;fill-opacity:1;fill-rule:evenodd;stroke:none"
           id="path3629"
           inkscape:connector-curvature="0" />
        <path
           d="m 984.4286,274.0605 c -2.2191,0 -6.4176,1.1456 -6.4176,5.4825 l 0,36.1579 -5.5995,0 c -1.1353,0 -1.7397,1.2891 -1.7397,2.2196 l 0,3.6553 c 0,0.9518 0.5854,1.4348 1.7397,1.4348 l 5.5995,0 0,13.7063 0.9177,0 c 2.2207,0 6.4223,-0.8344 6.4223,-5.477 l 0,-8.2293 10.9143,0 c 1.5949,0 1.9295,-0.7808 1.9295,-1.4348 l 0,-3.6553 c 0,-0.8943 -0.8101,-2.2196 -1.9295,-2.2196 l -10.9143,0 0,-41.6341 -0.9224,-0.006 z"
           style="fill:#ffffff;fill-opacity:1;fill-rule:evenodd;stroke:none"
           id="path3631"
           inkscape:connector-curvature="0" />
        <path
           d="m 958.718,333.4974 c -2.9082,0 -5.2736,2.3544 -5.2736,5.2509 0,2.8949 2.3654,5.2516 5.2736,5.2516 2.9065,0 5.272,-2.3567 5.272,-5.2516 0,-2.8965 -2.3655,-5.2509 -5.272,-5.2509"
           style="fill:#ffffff;fill-opacity:1;fill-rule:evenodd;stroke:none"
           id="path3633"
           inkscape:connector-curvature="0" />
      </g>
    </g>
  </g>
</svg>
