<svg width="1792" height="1792" viewBox="0 0 1792 1792" xmlns="http://www.w3.org/2000/svg"><path d="M991 1024l64-256h-254l-64 256h254zm768-504l-56 224q-7 24-31 24h-327l-64 256h311q15 0 25 12 10 14 6 28l-56 224q-5 24-31 24h-327l-81 328q-7 24-31 24h-224q-16 0-26-12-9-12-6-28l78-312h-254l-81 328q-7 24-31 24h-225q-15 0-25-12-9-12-6-28l78-312h-311q-15 0-25-12-9-12-6-28l56-224q7-24 31-24h327l64-256h-311q-15 0-25-12-10-14-6-28l56-224q5-24 31-24h327l81-328q7-24 32-24h224q15 0 25 12 9 12 6 28l-78 312h254l81-328q7-24 32-24h224q15 0 25 12 9 12 6 28l-78 312h311q15 0 25 12 9 12 6 28z" fill="#fff"/></svg>