<svg width="1792" height="1792" viewBox="0 0 1792 1792" xmlns="http://www.w3.org/2000/svg"><path d="M384 1408q0 80-56 136t-136 56-136-56-56-136 56-136 136-56 136 56 56 136zm0-512q0 80-56 136t-136 56-136-56-56-136 56-136 136-56 136 56 56 136zm1408 416v192q0 13-9.5 22.5t-22.5 9.5h-1216q-13 0-22.5-9.5t-9.5-22.5v-192q0-13 9.5-22.5t22.5-9.5h1216q13 0 22.5 9.5t9.5 22.5zm-1408-928q0 80-56 136t-136 56-136-56-56-136 56-136 136-56 136 56 56 136zm1408 416v192q0 13-9.5 22.5t-22.5 9.5h-1216q-13 0-22.5-9.5t-9.5-22.5v-192q0-13 9.5-22.5t22.5-9.5h1216q13 0 22.5 9.5t9.5 22.5zm0-512v192q0 13-9.5 22.5t-22.5 9.5h-1216q-13 0-22.5-9.5t-9.5-22.5v-192q0-13 9.5-22.5t22.5-9.5h1216q13 0 22.5 9.5t9.5 22.5z" fill="#fff"/></svg>