<svg width="1792" height="1792" viewBox="0 0 1792 1792" xmlns="http://www.w3.org/2000/svg"><path d="M1792 846q0 58-29.5 105.5t-79.5 72.5q12 46 12 96 0 155-106.5 287t-290.5 208.5-400 76.5-399.5-76.5-290-208.5-106.5-287q0-47 11-94-51-25-82-73.5t-31-106.5q0-82 58-140.5t141-58.5q85 0 145 63 218-152 515-162l116-521q3-13 15-21t26-5l369 81q18-37 54-59.5t79-22.5q62 0 106 43.5t44 105.5-44 106-106 44-105.5-43.5-43.5-105.5l-334-74-104 472q300 9 519 160 58-61 143-61 83 0 141 58.5t58 140.5zm-1374 199q0 62 43.5 106t105.5 44 106-44 44-106-44-105.5-106-43.5q-61 0-105 44t-44 105zm810 355q11-11 11-26t-11-26q-10-10-25-10t-26 10q-41 42-121 62t-160 20-160-20-121-62q-11-10-26-10t-25 10q-11 10-11 25.5t11 26.5q43 43 118.5 68t122.5 29.5 91 4.5 91-4.5 122.5-29.5 118.5-68zm-3-205q62 0 105.5-44t43.5-106q0-61-44-105t-105-44q-62 0-106 43.5t-44 105.5 44 106 106 44z" fill="#fff"/></svg>