<svg width="1792" height="1792" viewBox="0 0 1792 1792" xmlns="http://www.w3.org/2000/svg"><path d="M896 0q182 0 348 71t286 191 191 286 71 348-71 348-191 286-286 191-348 71-348-71-286-191-191-286-71-348 71-348 191-286 286-191 348-71zm0 128q-190 0-361 90l194 194q82-28 167-28t167 28l194-194q-171-90-361-90zm-678 1129l194-194q-28-82-28-167t28-167l-194-194q-90 171-90 361t90 361zm678 407q190 0 361-90l-194-194q-82 28-167 28t-167-28l-194 194q171 90 361 90zm0-384q159 0 271.5-112.5t112.5-271.5-112.5-271.5-271.5-112.5-271.5 112.5-112.5 271.5 112.5 271.5 271.5 112.5zm484-217l194 194q90-171 90-361t-90-361l-194 194q28 82 28 167t-28 167z" fill="#fff"/></svg>