<svg width="1792" height="1792" viewBox="0 0 1792 1792" xmlns="http://www.w3.org/2000/svg"><path d="M1920 895q0 21-13 36.5t-33 19.5l-205 356q3 9 3 18 0 20-12.5 35.5t-32.5 19.5l-193 337q3 8 3 16 0 23-16.5 40t-40.5 17q-25 0-41-18h-400q-17 20-43 20t-43-20h-399q-17 20-43 20-23 0-40-16.5t-17-40.5q0-8 4-20l-193-335q-20-4-32.5-19.5t-12.5-35.5q0-9 3-18l-206-356q-20-5-32.5-20.5t-12.5-35.5q0-21 13.5-36.5t33.5-19.5l199-344q0-1-.5-3t-.5-3q0-36 34-51l209-363q-4-10-4-18 0-24 17-40.5t40-16.5q26 0 44 21h396q16-21 43-21t43 21h398q18-21 44-21 23 0 40 16.5t17 40.5q0 6-4 18l207 358q23 1 39 17.5t16 38.5q0 13-7 27l187 324q19 4 31.5 19.5t12.5 35.5zm-985 799h389l-342-354h-143l-342 354h360q18-16 39-16t39 16zm-951-812q1 4 1 13 0 10-2 15l208 360q2 0 4.5 1t5.5 2.5l5 2.5 188-199v-347l-187-194q-13 8-29 10zm874-784h-388l190 200 554-200h-280q-16 16-38 16t-38-16zm703 1212q1-6 5-11l-64-68-17 79h76zm-106 0l22-105-252-266-296 307 63 64h463zm-88 368l16-28 65-310h-427l333 343q8-4 13-5zm-917 16h5l342-354h-373v335l4 6q14 5 22 13zm-26-384h402l64-66-309-321-157 166v221zm-193 0h163v-189l-168 177q4 8 5 12zm-1-825q0 1 .5 2t.5 2q0 16-8 29l171 177v-269zm194-70v311l153 157 297-314-223-236zm4-304l-4 8v264l205-74-191-201q-6 2-10 3zm891-13h-16l-621 224 213 225zm-424 492l-297 315 311 319 296-307zm-335 312l-136-141v284zm350 364l-42 44h85zm336-348l238 251 132-624-3-5-1-1zm344-400q-8-13-8-29v-2l-216-376q-5-1-13-5l-437 463 310 327zm-1196-124v-223l-163 282zm0 946h-163l163 283v-283zm1085 0l-48 227 130-227h-82zm122-70l207-361q-2-10-2-14 0-1 3-16l-171-296-129 612 77 82q5-3 15-7z"/></svg>