<svg width="1792" height="1792" viewBox="0 0 1792 1792" xmlns="http://www.w3.org/2000/svg"><path d="M1757 1408l35 313q3 28-16 50-19 21-48 21h-1664q-29 0-48-21-19-22-16-50l35-313h1722zm-93-839l86 775h-1708l86-775q3-24 21-40.5t43-16.5h256v128q0 53 37.5 90.5t90.5 37.5 90.5-37.5 37.5-90.5v-128h384v128q0 53 37.5 90.5t90.5 37.5 90.5-37.5 37.5-90.5v-128h256q25 0 43 16.5t21 40.5zm-384-185v256q0 26-19 45t-45 19-45-19-19-45v-256q0-106-75-181t-181-75-181 75-75 181v256q0 26-19 45t-45 19-45-19-19-45v-256q0-159 112.5-271.5t271.5-112.5 271.5 112.5 112.5 271.5z"/></svg>