<svg width="1792" height="1792" viewBox="0 0 1792 1792" xmlns="http://www.w3.org/2000/svg"><path d="M480 1408v128h-352v-128h352zm352-128q26 0 45 19t19 45v256q0 26-19 45t-45 19h-256q-26 0-45-19t-19-45v-256q0-26 19-45t45-19h256zm160-384v128h-864v-128h864zm-640-512v128h-224v-128h224zm1312 1024v128h-736v-128h736zm-960-1152q26 0 45 19t19 45v256q0 26-19 45t-45 19h-256q-26 0-45-19t-19-45v-256q0-26 19-45t45-19h256zm640 512q26 0 45 19t19 45v256q0 26-19 45t-45 19h-256q-26 0-45-19t-19-45v-256q0-26 19-45t45-19h256zm320 128v128h-224v-128h224zm0-512v128h-864v-128h864z"/></svg>