<svg width="1792" height="1792" viewBox="0 0 1792 1792" xmlns="http://www.w3.org/2000/svg"><path d="M1024 896q0-104-40.5-198.5t-109.5-163.5-163.5-109.5-198.5-40.5-198.5 40.5-163.5 109.5-109.5 163.5-40.5 198.5 40.5 198.5 109.5 163.5 163.5 109.5 198.5 40.5 198.5-40.5 163.5-109.5 109.5-163.5 40.5-198.5zm768 0q0-104-40.5-198.5t-109.5-163.5-163.5-109.5-198.5-40.5h-386q119 90 188.5 224t69.5 288-69.5 288-188.5 224h386q104 0 198.5-40.5t163.5-109.5 109.5-163.5 40.5-198.5zm128 0q0 130-51 248.5t-136.5 204-204 136.5-248.5 51h-768q-130 0-248.5-51t-204-136.5-136.5-204-51-248.5 51-248.5 136.5-204 204-136.5 248.5-51h768q130 0 248.5 51t204 136.5 136.5 204 51 248.5z"/></svg>