<?xml version="1.0" encoding="UTF-8" standalone="no"?>
<!-- Generator: Adobe Illustrator 16.0.0, SVG Export Plug-In . SVG Version: 6.00 Build 0)  -->

<svg
   xmlns:dc="http://purl.org/dc/elements/1.1/"
   xmlns:cc="http://creativecommons.org/ns#"
   xmlns:rdf="http://www.w3.org/1999/02/22-rdf-syntax-ns#"
   xmlns:svg="http://www.w3.org/2000/svg"
   xmlns="http://www.w3.org/2000/svg"
   xmlns:sodipodi="http://sodipodi.sourceforge.net/DTD/sodipodi-0.dtd"
   xmlns:inkscape="http://www.inkscape.org/namespaces/inkscape"
   version="1.1"
   id="Layer_1"
   x="0px"
   y="0px"
   width="446.1044"
   height="407.54163"
   fill='#ffffff'
   viewBox="0 0 446.1044 407.54163"
   enable-background="new 0 0 599 472"
   xml:space="preserve"
   inkscape:version="0.91 r13725"
   sodipodi:docname="parity-logo-white.svg"><metadata
     id="metadata3442"><rdf:RDF><cc:Work
         rdf:about=""><dc:format>image/svg+xml</dc:format><dc:type
           rdf:resource="http://purl.org/dc/dcmitype/StillImage" /><dc:title></dc:title></cc:Work></rdf:RDF></metadata><defs
     id="defs3440" /><sodipodi:namedview
     pagecolor="#ffffff"
     bordercolor="#666666"
     borderopacity="1"
     objecttolerance="10"
     gridtolerance="10"
     guidetolerance="10"
     inkscape:pageopacity="0"
     inkscape:pageshadow="2"
     inkscape:window-width="1363"
     inkscape:window-height="862"
     id="namedview3438"
     showgrid="false"
     fit-margin-top="0"
     fit-margin-left="0"
     fit-margin-right="0"
     fit-margin-bottom="0"
     inkscape:zoom="1.375"
     inkscape:cx="272.073"
     inkscape:cy="207.77242"
     inkscape:window-x="0"
     inkscape:window-y="0"
     inkscape:window-maximized="0"
     inkscape:current-layer="Layer_1" /><path
     d="m 445.076,88.583194 c 2.758,24.580996 0.085,41.594996 -9.431,59.368996 -14.124,26.375 -35.951,43.904 -64.072,53.619 -19.164,6.621 -38.881,7.435 -58.847,4.726 -17.481,-2.375 -34.171,-7.518 -50.403,-14.276 -0.498,-0.207 -0.934,-0.569 -1.399,-0.861 0.553,0.102 1.131,0.13 1.658,0.314 15.869,5.581 32.085,9.65 48.894,11.057 22.342,1.87 43.878,-0.855 63.853,-11.815 12.879,-7.064 23.693,-16.488 32.475,-28.32 9.335,-12.588 15.155,-26.567 17.114,-42.088 2.766,-21.789996 -3.615,-40.960996 -17.278,-57.818996 -12.042,-14.857 -27.016,-25.515 -45.747,-30.25 -13.109,-3.313 -25.863,-2.27 -38.048,3.993 -5.376,2.764 -11.137,4.87 -16.252,8.039 -11.578,7.184 -20.912,16.979 -29.243,27.612 -8.093,10.323 -15.713,21.02 -23.312,31.718996 -5.111,7.205 -9.932,14.623 -14.695,22.064 -14.297,22.335 -28.348,44.819 -42.791,67.059 -12.012,18.504 -24.866,36.422 -39.294,53.15 -3.297,3.823 -6.858,7.419 -10.323,11.092 -0.284,0.303 -0.768,0.413 -1.164,0.618 0.18,-0.372 0.296,-0.78 0.527,-1.111 3.705,-5.32 7.593,-10.52 11.101,-15.961 12.652,-19.634 23.312,-40.375 33.675,-61.275 11.782,-23.759 23.403,-47.594 35.301,-71.296 10.511,-20.933996 21.896,-41.393996 35.328,-60.611996 9.289,-13.287 19.608,-25.682 32.803,-35.415 15.046,-11.10199986 31.49,-12.07299986 50.114,-11.89799986 23.358,0.215 40.052,8.64399996 55.289,20.03999986 14.101,11.029 21.479,19.407 32.723,37.906 5.807,9.563 10.563,22.785 11.444,30.62 z"
     id="path3410"
     inkscape:connector-curvature="0"
     style="clip-rule:evenodd;fill-rule:evenodd" /><path
     d="m 105.138,224.44619 c -6.696,3.271 -13.862,5.131 -21.242,6.22 -15.885,2.35 -30.524,-0.357 -43.006,-11.177 -0.802,-0.696 -1.424,-1.589 -2.128,-2.391 0.85,0.616 1.717,1.207 2.544,1.848 10.317,7.949 22.148,10.616 34.907,10.028 11.801,-0.537 20.574,-3.503 31.22,-8.309 1.604,-0.723 5.122,-3.231 6.25,-4.62 9.183,-11.342 17.655,-22.783 24.918,-35.422 11.151,-19.417 22.103,-38.946 33.061,-58.467 10.799,-19.233 21.559,-38.490996 34.136,-56.642996 9.575,-13.811 20.079,-26.84 33.292,-37.421 9.45,-7.573 19.894,-13.174 31.854,-15.724 5.84,-1.247 11.629,-2.7329999 17.454,-4.0899999 0.341,-0.081 0.715,0.014 1.075,0.027 -0.278,0.181 -0.537,0.396 -0.837,0.538 -19.58,9.3609999 -34.218,24.4719999 -47.659,40.9739999 -10.808,13.277 -20.355,27.457 -29.294,42.019 -9.329,15.193996 -18.147,30.707996 -27.193,46.077996 -6.06,10.298 -11.988,20.676 -18.239,30.856 -6.477,10.538 -13.035,21.043 -19.989,31.272 -9.524,14.01 -19.969,27.3 -32.613,38.731 -10.294,9.313 -22.644,16.201 -34.545,18.714 -11.392,2.263 -23.047,0.876 -34.415,-3.306 -17.555,-6.459 -31.736,-17.446 -43.035,-32.267 -0.306,-0.4 -0.604,-0.813 -0.862,-1.241 -0.288,-0.495 -0.527,-1.012 -0.792,-1.521 0.411,0.378 0.856,0.719 1.218,1.129 10.842,12.341 23.84,21.479 39.555,26.548 20.167,6.502 37.77,1.897 54.265,-11.059 7.343,-5.768 10.1,-11.324 10.1,-11.324 z"
     id="path3412"
     inkscape:connector-curvature="0"
     style="clip-rule:evenodd;fill-rule:evenodd" /><path
     d="m 393.16,88.254194 c 2.925,13.411996 0.414,26.197996 -4.771,38.658996 -0.182,0.441 -0.544,0.805 -0.822,1.202 -0.061,-0.383 -0.206,-0.775 -0.173,-1.147 2.067,-23.399 -8.303,-40.934996 -26.038,-54.907996 -10.861,-8.562 -23.228,-13.804 -36.88,-16.02 -0.697,-0.115 -1.356,-0.452 -2.033,-0.687 0.561,-0.472 1.056,-1.066 1.686,-1.398 16.729,-8.902 32.991,-7.607 48.378,2.991 10.957,7.546 17.896,18.097 20.653,31.308 z"
     id="path3414"
     inkscape:connector-curvature="0"
     style="clip-rule:evenodd;fill-rule:evenodd" /><path
     d="m 333.73,242.84619 c -15.294,1.323 -30.865,-1.065 -46.192,-5.421 -17.569,-4.995 -34.205,-12.281 -50.317,-20.808 -0.446,-0.237 -0.793,-0.668 -1.182,-1.009 0.466,0.162 0.952,0.278 1.398,0.496 16.801,8.124 34.107,14.846 52.369,18.926 15.489,3.451 31.118,5.016 46.87,2.505 16.41,-2.615 31.281,-9.049 44.559,-19.121 6.878,-5.217 13.045,-11.14 18.482,-17.836 0.328,-0.398 0.83,-0.662 1.252,-0.991 -0.203,0.453 -0.368,0.924 -0.61,1.344 -6.534,11.047 -15.14,20.181 -25.722,27.397 -12.131,8.284 -25.608,12.958 -40.907,14.518 z"
     id="path3416"
     inkscape:connector-curvature="0"
     style="clip-rule:evenodd;fill-rule:evenodd" /><g
     id="g3418"
     transform="translate(-27.427,-36.230806)"><path
       d="m 163.555,443.355 c -1.854,0 -4.338,0.024 -6.14,0.024 -0.759,0 -0.883,-0.125 -0.883,-0.892 0,-0.614 0.015,-1.113 0.015,-1.73 0,-25.897 0,-52.348 0,-78.244 1.14,0 3.522,-0.024 5.606,-0.024 1.408,0 1.413,1.108 1.441,2.145 0.036,1.226 0.109,2.448 0.167,3.676 0.823,-0.895 1.624,-1.812 2.474,-2.678 2.747,-2.803 6.056,-4.375 10.02,-4.401 3.944,-0.025 7.892,-0.066 11.836,0.018 9.824,0.21 16.31,6.568 16.463,16.351 0.145,9.141 0.133,18.285 0.005,27.429 -0.137,9.914 -6.669,16.337 -16.633,16.467 -7.314,0.094 -14.63,0.018 -21.944,0.037 -2.347,0.006 -2.372,0.032 -2.38,2.354 l -0.047,19.468 z m 33.883,-51.911 -0.01,0 c 0,-4.131 0.113,-8.267 -0.025,-12.395 -0.224,-6.682 -3.787,-10.315 -10.407,-10.609 -3.547,-0.16 -7.115,-0.169 -10.663,0 -7.71,0.365 -12.46,4.891 -12.638,12.544 -0.247,10.563 -0.071,21.138 -0.116,31.707 -0.003,1.22 0.383,1.719 1.649,1.683 2.399,-0.068 4.804,-0.015 7.206,-0.018 4.709,0 9.419,0.085 14.123,-0.022 6.92,-0.16 10.592,-3.868 10.872,-10.782 0.025,-0.672 0.01,-1.343 0.01,-2.018 -0.001,-3.363 -0.001,-6.726 -0.001,-10.09 z"
       id="path3420"
       inkscape:connector-curvature="0"
       style="clip-rule:evenodd;fill-rule:evenodd" /><path
       d="m 398.145,442.797 c -1.209,-1.208 -1.22,-2.509 -1.22,-4.547 0,-1.19 0.758,-1.93 2.052,-1.933 0.576,-0.003 1.156,0.002 1.731,-0.031 3.036,-0.167 5.565,-1.381 7.547,-3.695 2.608,-3.043 4.278,-6.616 5.56,-10.354 0.291,-0.852 -0.098,-2.062 -0.461,-2.994 -4.045,-10.383 -8.151,-20.737 -12.234,-31.103 -2.927,-7.418 -5.844,-14.835 -8.765,-22.252 -0.178,-0.447 -0.389,-0.884 -0.521,-1.342 -0.421,-1.462 -0.103,-1.961 1.343,-2.151 0.284,-0.039 0.578,-0.012 0.866,-0.021 4.704,-0.162 4.709,-0.164 6.454,4.309 5.351,13.686 10.696,27.373 16.043,41.061 0.212,0.536 0.397,1.084 0.635,1.608 0.27,0.591 0.581,1.162 0.877,1.741 0.379,-0.623 0.853,-1.21 1.116,-1.879 1.193,-3.037 2.331,-6.098 3.484,-9.155 4.274,-11.317 8.54,-22.641 12.834,-33.953 0.499,-1.312 0.687,-3.534 2.327,-3.534 1.709,0 3.536,-0.014 5.345,-0.014 0.848,0 0.833,0.972 0.833,1.494 0,0.421 -0.221,0.916 -0.395,1.362 -7.828,20.241 -15.62,40.499 -23.548,60.7 -1.185,3.014 -2.918,5.835 -4.587,8.632 -2.562,4.291 -6.279,7.338 -11.113,8.61 -3.881,1.022 -5.746,-0.102 -6.203,-0.559 z"
       id="path3422"
       inkscape:connector-curvature="0"
       style="clip-rule:evenodd;fill-rule:evenodd" /><path
       d="m 334.455,340.54 c 1.253,1.932 0.604,4.066 0.594,6.117 -0.006,1.009 -0.817,1.457 -1.776,1.475 -1.522,0.028 -3.046,0.028 -4.568,0 -0.959,-0.018 -1.772,-0.466 -1.775,-1.475 -0.01,-2.051 -0.658,-4.186 0.594,-6.117 2.309,0 4.621,0 6.931,0 z"
       id="path3424"
       inkscape:connector-curvature="0"
       style="clip-rule:evenodd;fill-rule:evenodd" /><path
       d="m 266.991,397.813 c 0,6.639 0.006,13.278 -0.002,19.918 -0.004,3.707 -0.155,3.843 -3.946,3.794 -0.287,-0.004 -0.578,0.012 -0.866,-0.008 -1.827,-0.129 -2.211,-0.465 -2.335,-2.205 -0.089,-1.241 -0.089,-2.486 -0.129,-3.729 -0.825,0.88 -1.636,1.778 -2.48,2.642 -2.821,2.881 -6.214,4.459 -10.286,4.451 -3.563,-0.002 -7.124,0.041 -10.683,-0.018 -9.792,-0.165 -16.153,-6.573 -16.26,-16.436 -0.021,-2.1 0.057,-4.242 0.433,-6.301 1.524,-8.328 7.822,-12.42 15.293,-12.644 6.923,-0.213 13.854,-0.06 20.782,-0.068 0.674,-0.003 1.348,-0.025 2.021,-0.007 0.796,0.02 1.318,-0.248 1.275,-1.135 -0.168,-3.45 -0.068,-6.94 -0.592,-10.333 -0.562,-3.646 -3.051,-5.94 -6.648,-6.78 -4.363,-1.02 -8.826,-0.847 -13.203,-0.297 -5.176,0.651 -7.679,3.432 -8.587,8.657 -0.688,3.955 -0.688,3.955 -4.701,3.774 -2.256,-0.104 -2.652,-0.445 -2.614,-2.789 0.143,-9.463 5.187,-16.407 16.065,-17.023 3.644,-0.205 7.311,-0.109 10.966,-0.032 9.804,0.205 16.27,6.584 16.454,16.361 0.127,6.734 0.024,13.472 0.024,20.207 l 0.019,0 z m -19.232,-3.431 c 0,0 0,0.023 0,0.035 -3.658,0 -7.325,-0.157 -10.972,0.036 -5.828,0.309 -9.347,4.026 -9.617,9.832 -0.278,5.983 2.694,10.264 8.319,10.955 4.945,0.609 10.004,0.773 14.942,-0.307 4.769,-1.044 7.935,-4.068 8.77,-8.872 0.591,-3.379 0.421,-6.888 0.62,-10.338 0.072,-1.276 -0.712,-1.355 -1.665,-1.351 -3.466,0.018 -6.933,0.01 -10.397,0.01 z"
       id="path3426"
       inkscape:connector-curvature="0"
       style="clip-rule:evenodd;fill-rule:evenodd" /><path
       d="m 359.751,388.471 c 0,-5.486 -0.003,-10.972 0.003,-16.459 0.003,-2.656 0.037,-2.469 -2.565,-2.473 -2.215,-0.003 -4.43,0.048 -6.641,-0.022 -1.827,-0.057 -2.271,-0.451 -2.324,-2.198 -0.16,-5.277 0.016,-4.997 4.506,-4.948 1.731,0.017 3.468,-0.066 5.196,0.021 1.353,0.068 1.894,-0.367 1.85,-1.787 -0.088,-2.885 -0.037,-5.775 -0.02,-8.662 0.018,-3.273 0.174,-3.419 3.441,-3.432 0.48,-0.003 0.965,-0.027 1.442,0.011 1.78,0.135 2.213,0.488 2.254,2.275 0.071,3.176 0.001,6.354 0.035,9.53 0.02,1.989 0.054,2.018 2.117,2.037 2.885,0.028 5.773,-0.016 8.661,0.015 2.731,0.028 3.006,0.314 3.074,2.93 0.107,4.09 -0.021,4.225 -4.089,4.23 -2.407,0.003 -4.812,-0.003 -7.222,0.002 -2.599,0.002 -2.556,-0.188 -2.553,2.48 0.004,9.144 0,18.289 0.004,27.436 0,1.635 -0.068,3.278 0.061,4.905 0.491,6.126 3.794,9.413 9.925,9.926 1.052,0.088 2.115,0.064 3.175,0.068 4.162,0.015 4.335,0.192 4.165,4.444 -0.095,2.331 -0.387,2.687 -2.71,2.707 -2.5,0.02 -5.037,0.168 -7.496,-0.188 -8.999,-1.311 -14.115,-7.236 -14.259,-16.388 -0.087,-5.486 -0.014,-10.974 -0.014,-16.461 l -0.016,0 z"
       id="path3428"
       inkscape:connector-curvature="0"
       style="clip-rule:evenodd;fill-rule:evenodd" /><path
       d="m 286.393,391.917 c 0,-8.468 0,-16.932 0.001,-25.396 0,-0.771 -0.055,-1.551 0.041,-2.308 0.211,-1.634 0.661,-1.843 3.55,-1.843 2.883,0.002 3.344,0.209 3.527,1.857 0.115,1.046 0.017,2.114 0.065,3.172 0.014,0.309 0.202,0.605 0.31,0.909 0.201,-0.188 0.408,-0.367 0.598,-0.562 1.337,-1.364 2.528,-2.929 4.045,-4.051 2.278,-1.684 4.941,-2.525 7.838,-2.482 2.212,0.034 4.425,-0.018 6.64,0.01 2.732,0.033 3.009,0.313 3.078,2.92 0.109,4.096 -0.022,4.249 -4.075,4.249 -2.624,0 -5.029,-0.102 -7.483,0.266 -6.56,0.98 -10.189,4.94 -10.854,11.543 -0.126,1.239 -0.108,2.498 -0.109,3.75 -0.008,11.06 -0.006,22.123 -0.006,33.186 0,0.771 0.045,1.546 -0.025,2.308 -0.18,1.903 -0.616,2.121 -3.902,2.081 -2.676,-0.033 -3.059,-0.281 -3.219,-2.193 -0.057,-0.669 -0.02,-1.346 -0.02,-2.021 0,-8.464 0,-16.931 0,-25.395 z"
       id="path3430"
       inkscape:connector-curvature="0"
       style="clip-rule:evenodd;fill-rule:evenodd" /><path
       d="m 334.571,391.899 c 0,8.742 0.01,17.484 -0.004,26.226 -0.005,3.236 -0.184,3.389 -3.459,3.397 -0.673,0.003 -1.347,0.015 -2.016,-0.047 -0.999,-0.089 -1.565,-0.678 -1.646,-1.673 -0.054,-0.669 -0.041,-1.343 -0.041,-2.015 -10e-4,-17.194 -10e-4,-34.389 -10e-4,-51.584 0,-0.48 -0.012,-0.961 0.01,-1.439 0.016,-0.383 -0.044,-0.825 0.123,-1.137 1.173,-2.185 3.239,-1.004 4.919,-1.212 1.22,-0.15 2.021,0.507 2.083,1.821 0.037,0.767 0.031,1.536 0.031,2.304 0.002,8.454 0.002,16.907 0.001,25.359 z"
       id="path3432"
       inkscape:connector-curvature="0"
       style="clip-rule:evenodd;fill-rule:evenodd" /><path
       d="m 197.438,391.444 c 0,3.363 0,6.727 0,10.09 0,0.675 0.016,1.346 -0.01,2.018 -0.279,6.914 -3.952,10.622 -10.872,10.782 -4.704,0.107 -9.413,0.022 -14.123,0.022 -2.402,0.003 -4.807,-0.051 -7.206,0.018 -1.267,0.036 -1.652,-0.463 -1.649,-1.683 0.045,-10.569 -0.13,-21.144 0.116,-31.707 0.178,-7.653 4.928,-12.179 12.638,-12.544 3.548,-0.169 7.116,-0.16 10.663,0 6.62,0.294 10.183,3.928 10.407,10.609 0.139,4.128 0.025,8.264 0.025,12.395 l 0.011,0 z"
       id="path3434"
       inkscape:connector-curvature="0"
       style="clip-rule:evenodd;fill:none;fill-rule:evenodd" /></g></svg>
