<?xml version="1.0" encoding="UTF-8" standalone="no"?>
<!-- Generator: Adobe Illustrator 16.0.0, SVG Export Plug-In . SVG Version: 6.00 Build 0)  -->

<svg
   xmlns:dc="http://purl.org/dc/elements/1.1/"
   xmlns:cc="http://creativecommons.org/ns#"
   xmlns:rdf="http://www.w3.org/1999/02/22-rdf-syntax-ns#"
   xmlns:svg="http://www.w3.org/2000/svg"
   xmlns="http://www.w3.org/2000/svg"
   xmlns:sodipodi="http://sodipodi.sourceforge.net/DTD/sodipodi-0.dtd"
   xmlns:inkscape="http://www.inkscape.org/namespaces/inkscape"
   version="1.1"
   id="Layer_1"
   x="0px"
   y="0px"
   width="446.1044"
   height="258.56647"
   viewBox="0 0 446.1044 258.56647"
   enable-background="new 0 0 599 472"
   xml:space="preserve"
   inkscape:version="0.91 r13725"
   sodipodi:docname="parity-logo-white-no-text.svg"
   style="fill:#ffffff"><metadata
     id="metadata3442"><rdf:RDF><cc:Work
         rdf:about=""><dc:format>image/svg+xml</dc:format><dc:type
           rdf:resource="http://purl.org/dc/dcmitype/StillImage" /><dc:title></dc:title></cc:Work></rdf:RDF></metadata><defs
     id="defs3440" /><sodipodi:namedview
     pagecolor="#ffffff"
     bordercolor="#666666"
     borderopacity="1"
     objecttolerance="10"
     gridtolerance="10"
     guidetolerance="10"
     inkscape:pageopacity="0"
     inkscape:pageshadow="2"
     inkscape:window-width="1363"
     inkscape:window-height="856"
     id="namedview3438"
     showgrid="false"
     fit-margin-top="0"
     fit-margin-left="0"
     fit-margin-right="0"
     fit-margin-bottom="0"
     inkscape:zoom="1.375"
     inkscape:cx="272.073"
     inkscape:cy="58.797248"
     inkscape:window-x="0"
     inkscape:window-y="0"
     inkscape:window-maximized="0"
     inkscape:current-layer="Layer_1" /><path
     d="m 445.076,88.583194 c 2.758,24.580996 0.085,41.594996 -9.431,59.368996 -14.124,26.375 -35.951,43.904 -64.072,53.619 -19.164,6.621 -38.881,7.435 -58.847,4.726 -17.481,-2.375 -34.171,-7.518 -50.403,-14.276 -0.498,-0.207 -0.934,-0.569 -1.399,-0.861 0.553,0.102 1.131,0.13 1.658,0.314 15.869,5.581 32.085,9.65 48.894,11.057 22.342,1.87 43.878,-0.855 63.853,-11.815 12.879,-7.064 23.693,-16.488 32.475,-28.32 9.335,-12.588 15.155,-26.567 17.114,-42.088 2.766,-21.789996 -3.615,-40.960996 -17.278,-57.818996 -12.042,-14.857 -27.016,-25.515 -45.747,-30.25 -13.109,-3.313 -25.863,-2.27 -38.048,3.993 -5.376,2.764 -11.137,4.87 -16.252,8.039 -11.578,7.184 -20.912,16.979 -29.243,27.612 -8.093,10.323 -15.713,21.02 -23.312,31.718996 -5.111,7.205 -9.932,14.623 -14.695,22.064 -14.297,22.335 -28.348,44.819 -42.791,67.059 -12.012,18.504 -24.866,36.422 -39.294,53.15 -3.297,3.823 -6.858,7.419 -10.323,11.092 -0.284,0.303 -0.768,0.413 -1.164,0.618 0.18,-0.372 0.296,-0.78 0.527,-1.111 3.705,-5.32 7.593,-10.52 11.101,-15.961 12.652,-19.634 23.312,-40.375 33.675,-61.275 11.782,-23.759 23.403,-47.594 35.301,-71.296 10.511,-20.933996 21.896,-41.393996 35.328,-60.611996 9.289,-13.287 19.608,-25.682 32.803,-35.415 15.046,-11.10199986 31.49,-12.07299986 50.114,-11.89799986 23.358,0.215 40.052,8.64399996 55.289,20.03999986 14.101,11.029 21.479,19.407 32.723,37.906 5.807,9.563 10.563,22.785 11.444,30.62 z"
     id="path3410"
     inkscape:connector-curvature="0"
     style="clip-rule:evenodd;fill-rule:evenodd" /><path
     d="m 105.138,224.44619 c -6.696,3.271 -13.862,5.131 -21.242,6.22 -15.885,2.35 -30.524,-0.357 -43.006,-11.177 -0.802,-0.696 -1.424,-1.589 -2.128,-2.391 0.85,0.616 1.717,1.207 2.544,1.848 10.317,7.949 22.148,10.616 34.907,10.028 11.801,-0.537 20.574,-3.503 31.22,-8.309 1.604,-0.723 5.122,-3.231 6.25,-4.62 9.183,-11.342 17.655,-22.783 24.918,-35.422 11.151,-19.417 22.103,-38.946 33.061,-58.467 10.799,-19.233 21.559,-38.490996 34.136,-56.642996 9.575,-13.811 20.079,-26.84 33.292,-37.421 9.45,-7.573 19.894,-13.174 31.854,-15.724 5.84,-1.247 11.629,-2.7329999 17.454,-4.0899999 0.341,-0.081 0.715,0.014 1.075,0.027 -0.278,0.181 -0.537,0.396 -0.837,0.538 -19.58,9.3609999 -34.218,24.4719999 -47.659,40.9739999 -10.808,13.277 -20.355,27.457 -29.294,42.019 -9.329,15.193996 -18.147,30.707996 -27.193,46.077996 -6.06,10.298 -11.988,20.676 -18.239,30.856 -6.477,10.538 -13.035,21.043 -19.989,31.272 -9.524,14.01 -19.969,27.3 -32.613,38.731 -10.294,9.313 -22.644,16.201 -34.545,18.714 -11.392,2.263 -23.047,0.876 -34.415,-3.306 -17.555,-6.459 -31.736,-17.446 -43.035,-32.267 -0.306,-0.4 -0.604,-0.813 -0.862,-1.241 -0.288,-0.495 -0.527,-1.012 -0.792,-1.521 0.411,0.378 0.856,0.719 1.218,1.129 10.842,12.341 23.84,21.479 39.555,26.548 20.167,6.502 37.77,1.897 54.265,-11.059 7.343,-5.768 10.1,-11.324 10.1,-11.324 z"
     id="path3412"
     inkscape:connector-curvature="0"
     style="clip-rule:evenodd;fill-rule:evenodd" /><path
     d="m 393.16,88.254194 c 2.925,13.411996 0.414,26.197996 -4.771,38.658996 -0.182,0.441 -0.544,0.805 -0.822,1.202 -0.061,-0.383 -0.206,-0.775 -0.173,-1.147 2.067,-23.399 -8.303,-40.934996 -26.038,-54.907996 -10.861,-8.562 -23.228,-13.804 -36.88,-16.02 -0.697,-0.115 -1.356,-0.452 -2.033,-0.687 0.561,-0.472 1.056,-1.066 1.686,-1.398 16.729,-8.902 32.991,-7.607 48.378,2.991 10.957,7.546 17.896,18.097 20.653,31.308 z"
     id="path3414"
     inkscape:connector-curvature="0"
     style="clip-rule:evenodd;fill-rule:evenodd" /><path
     d="m 333.73,242.84619 c -15.294,1.323 -30.865,-1.065 -46.192,-5.421 -17.569,-4.995 -34.205,-12.281 -50.317,-20.808 -0.446,-0.237 -0.793,-0.668 -1.182,-1.009 0.466,0.162 0.952,0.278 1.398,0.496 16.801,8.124 34.107,14.846 52.369,18.926 15.489,3.451 31.118,5.016 46.87,2.505 16.41,-2.615 31.281,-9.049 44.559,-19.121 6.878,-5.217 13.045,-11.14 18.482,-17.836 0.328,-0.398 0.83,-0.662 1.252,-0.991 -0.203,0.453 -0.368,0.924 -0.61,1.344 -6.534,11.047 -15.14,20.181 -25.722,27.397 -12.131,8.284 -25.608,12.958 -40.907,14.518 z"
     id="path3416"
     inkscape:connector-curvature="0"
     style="clip-rule:evenodd;fill-rule:evenodd" /></svg>